<svg xmlns="http://www.w3.org/2000/svg" xmlns:xlink="http://www.w3.org/1999/xlink" width="150" height="150" viewBox="0 0 150 150">
    <defs>
        <linearGradient id="b" x1="151.952%" x2="80.788%" y1="9.216%" y2="106.786%">
            <stop offset="0%" stop-color="#BBD9D0"/>
            <stop offset="100%" stop-color="#7CA6A9"/>
        </linearGradient>
        <circle id="a" cx="75" cy="75" r="75"/>
        <filter id="c" width="221.7%" height="222.3%" x="-53.4%" y="-52%" filterUnits="objectBoundingBox">
            <feOffset dx="8" dy="10" in="SourceAlpha" result="shadowOffsetOuter1"/>
            <feGaussianBlur in="shadowOffsetOuter1" result="shadowBlurOuter1" stdDeviation="21"/>
            <feColorMatrix in="shadowBlurOuter1" result="shadowMatrixOuter1" values="0 0 0 0 0.296784273 0 0 0 0 0.519903274 0 0 0 0 0.501310024 0 0 0 1 0"/>
            <feMerge>
                <feMergeNode in="shadowMatrixOuter1"/>
                <feMergeNode in="SourceGraphic"/>
            </feMerge>
        </filter>
        <linearGradient id="e" x1="0%" x2="22.34%" y1="50%" y2="50%">
            <stop offset="0%" stop-color="#F2FAFF"/>
            <stop offset="100%" stop-color="#FFF"/>
        </linearGradient>
        <linearGradient id="f" x1="50%" x2="50%" y1="0%" y2="100%">
            <stop offset="0%" stop-color="#FFA2BA"/>
            <stop offset="100%" stop-color="#FF7969"/>
        </linearGradient>
        <path id="h" d="M13.987 14.016L65.293 17.8a3 3 0 0 1 2.78 2.992v7.436a3 3 0 0 1-2.79 2.993l-51.904 3.636.608-20.84z"/>
        <filter id="g" width="217.2%" height="412.9%" x="-76.9%" y="-136.9%" filterUnits="objectBoundingBox">
            <feOffset dx="-10" dy="4" in="SourceAlpha" result="shadowOffsetOuter1"/>
            <feGaussianBlur in="shadowOffsetOuter1" result="shadowBlurOuter1" stdDeviation="9"/>
            <feColorMatrix in="shadowBlurOuter1" values="0 0 0 0 0.506935587 0 0 0 0 0.366030136 0 0 0 0 0.366030136 0 0 0 0.5 0"/>
        </filter>
        <linearGradient id="i" x1="100%" x2="0%" y1="15.59%" y2="29.07%">
            <stop offset="0%" stop-color="#CBFFC1"/>
            <stop offset="100%" stop-color="#56E998"/>
        </linearGradient>
        <linearGradient id="j" x1="24.073%" x2="35.12%" y1="75.402%" y2="59.329%">
            <stop offset="0%" stop-color="#CAA588"/>
            <stop offset="100%" stop-color="#FFCE5D"/>
        </linearGradient>
    </defs>
    <g fill="none" fill-rule="evenodd">
        <mask id="d" fill="#fff">
            <use xlink:href="#a"/>
        </mask>
        <use fill="url(#b)" xlink:href="#a"/>
        <g filter="url(#c)" mask="url(#d)">
            <g transform="rotate(-27 109.724 89.772)">
                <rect width="104.187" height="103.552" x=".14" y="7.54" fill="#FFF" opacity=".3" rx="12"/>
                <rect width="104.187" height="103.552" x="5.457" y="3.615" fill="#FFF" opacity=".426" rx="12"/>
                <rect width="104.187" height="103.552" x="8.128" fill="url(#e)" rx="12"/>
                <path fill="url(#f)" d="M20.128 0h80.187c6.628 0 12 5.373 12 12v14.047H8.128V12c0-6.627 5.373-12 12-12z"/>
                <path stroke="#979797" stroke-linecap="round" stroke-width="3" d="M31.49 34.569c-.016 25.866 1.358 42.953 4.123 51.262M50.325 35.043c-.017 25.866 1.358 42.954 4.123 51.263M68.835 34.523c-.017 25.866 1.358 42.954 4.123 51.262M87.009 34.66c-.016 25.867 1.358 42.955 4.123 51.263" opacity=".123"/>
                <path stroke="#FFEE69" stroke-width="5" d="M52.545 48.004c-3.779-4.708-14.315-5.136-18.9 4.006-4.584 9.143 4.806 26.861 18.448 19.596 6.156-3.28 6.113-9.643 3.884-12.45-2.709-3.413-9.094-4.09-14.223-1.473" opacity=".855"/>
            </g>
        </g>
        <g mask="url(#d)">
            <path fill="#947B63" d="M44.456 76.938c-7-2.482-.35-9.621 2.55-12.567 2.898-2.945 17.833-14.223 24.46-13.942 4.418.188 12.6 9.024 24.545 26.51l-3.434 6.069-24.302-1.705c-11.212-1.256-19.151-2.71-23.819-4.365z"/>
            <path fill="#A0856B" d="M117.199 82.43L99.633 62.703 70.143 49.42C81.585 55.57 84.44 61.125 78.708 66.08c10.853-1.231 15.024 12.96 7.439 12.96-2.83 0-4.712 11.382-1.718 11.382.836 2.143 3.562 5.229 5.399 6.708 1.836 1.478 5.984 3.464 9.037 3.558 1.648.05 5.87 7.833 9.305 7.142 6.75-1.358 15.435-8.61 12.725-16.02-.57-1.557-1.802-4.684-3.696-9.38z"/>
            <g transform="rotate(-35 123.012 -7.604)">
                <use fill="#000" filter="url(#g)" xlink:href="#h"/>
                <use fill="#FFEE69" xlink:href="#h"/>
            </g>
            <path fill="#A0856B" d="M59.474 83.324a4.114 4.114 0 0 1 4.1-3.768l22.302.005a7.573 7.573 0 0 1 7.572 7.573 6.075 6.075 0 0 1-7.392 5.93l-23.207-5.151a4.327 4.327 0 0 1-3.375-4.589z"/>
            <path fill="url(#i)" d="M100.826 32.408h32.77l11.603 111.11H89.223z" transform="rotate(-51 177.213 73.796)"/>
            <path fill="url(#j)" d="M.646 49.004l7.103-4.079 2.439 3.958-5.427 3.14z" transform="translate(33.251 41.38)"/>
            <path fill="#393939" d="M46.612 72.629L57.96 90.101c-6.724-1.965-11.283-2.17-13.677-.616l-4.023 2.612-2.67-4.11 4.024-2.613c2.447-1.59 4.114-5.838 5-12.745z"/>
        </g>
    </g>
</svg>
