<svg xmlns="http://www.w3.org/2000/svg" xmlns:xlink="http://www.w3.org/1999/xlink" width="123" height="193" viewBox="0 0 123 193">
    <defs>
        <ellipse id="a" cx="12.698" cy="12.229" rx="11.977" ry="11.94"/>
        <ellipse id="b" cx="12.057" cy="12.229" rx="11.977" ry="11.94"/>
        <linearGradient id="e" x1="0%" x2="102%" y1="0%" y2="101%">
            <stop offset="0%" stop-color="#3023AE"/>
            <stop offset="100%" stop-color="#C86DD7"/>
        </linearGradient>
        <path id="c" d="M7.437 16.83L40.785 1.44a8.96 8.96 0 0 1 7.646.066l31.65 15.264a12.8 12.8 0 0 1 7.24 11.53v42.01a9.6 9.6 0 0 1-9.6 9.6H9.6a9.6 9.6 0 0 1-9.6-9.6V28.453A12.8 12.8 0 0 1 7.437 16.83z"/>
        <filter id="d" width="164.1%" height="170.6%" x="-32.1%" y="-25.2%" filterUnits="objectBoundingBox">
            <feOffset dy="8" in="SourceAlpha" result="shadowOffsetOuter1"/>
            <feGaussianBlur in="shadowOffsetOuter1" result="shadowBlurOuter1" stdDeviation="8"/>
            <feColorMatrix in="shadowBlurOuter1" values="0 0 0 0 0.226735433 0 0 0 0 0.437054197 0 0 0 0 0.687818878 0 0 0 0.0769927536 0"/>
        </filter>
        <path id="h" d="M0 20.262l39.921 28.736a6.4 6.4 0 0 0 7.478 0L87.32 20.262V73.51a6.4 6.4 0 0 1-6.4 6.4H6.4a6.4 6.4 0 0 1-6.4-6.4V20.26z"/>
        <filter id="g" width="140.1%" height="158.7%" x="-20%" y="-32.7%" filterUnits="objectBoundingBox">
            <feOffset dy="-2" in="SourceAlpha" result="shadowOffsetOuter1"/>
            <feGaussianBlur in="shadowOffsetOuter1" result="shadowBlurOuter1" stdDeviation="5.5"/>
            <feColorMatrix in="shadowBlurOuter1" values="0 0 0 0 0.108708411 0 0 0 0 0.237823149 0 0 0 0 0.391767645 0 0 0 0.0690104167 0"/>
        </filter>
        <path id="j" d="M47.4 51.174l39.92 28.737H0l39.921-28.737a6.4 6.4 0 0 1 7.478 0z"/>
        <filter id="i" width="119.5%" height="156.8%" x="-9.7%" y="-35.1%" filterUnits="objectBoundingBox">
            <feOffset dy="-2" in="SourceAlpha" result="shadowOffsetOuter1"/>
            <feGaussianBlur in="shadowOffsetOuter1" result="shadowBlurOuter1" stdDeviation="2.5"/>
            <feColorMatrix in="shadowBlurOuter1" values="0 0 0 0 0.25232519 0 0 0 0 0.423517195 0 0 0 0 0.62763074 0 0 0 0.0260699728 0"/>
        </filter>
    </defs>
    <g fill="none" fill-rule="evenodd">
        <path fill="#FFC083" d="M101.407 101.422l10.978-4.887 6.592 14.98a6.798 6.798 0 0 1-9.12 8.888l-8.45-18.98zM27.42 99.86l-10.977-4.888L4.21 121.235a7.525 7.525 0 0 0 9.082 10.356L27.42 99.859z"/>
        <path fill="#FFCB8F" d="M18.703.753c22.924 9.654 34.44 18.278 34.55 25.872.147 10.189-25.771 23.395-33.927 17.287-6.08-4.552-6.287-18.939-.623-43.16z"/>
        <path fill="#FBA581" d="M23.71 10.58c11.835 4.983 17.78 9.436 17.837 13.356.076 5.26-13.305 12.078-17.516 8.925-3.138-2.35-3.245-9.778-.321-22.282z"/>
        <path fill="#FFCB8F" d="M103.975.753C81.05 10.407 69.534 19.03 69.424 26.625c-.147 10.189 25.771 23.395 33.928 17.287 6.08-4.552 6.287-18.939.623-43.16z"/>
        <path fill="#FBA581" d="M99.286 10.58c-11.835 4.983-17.78 9.436-17.837 13.356-.076 5.26 13.305 12.078 17.515 8.925 3.139-2.35 3.246-9.778.322-22.282z"/>
        <path fill="#FFC083" d="M61.86 131.012c17.267 0 17.234-6.665 27.007-11.766 15.352-8.014 29.752-22.03 29.752-41.125 0-19.642-10.038-38.344-25.279-49.53-5.06-3.713-10.693-6.597-16.722-8.413-4.706-1.417-10.454-.584-15.559-.584-6.037 0-11.053-.527-16.511 1.426-5.922 2.118-11.42 5.275-16.32 9.228C14.203 41.568 5.103 59.42 5.103 78.121c0 17.593 12.222 30.873 26.15 39.121 10.815 6.404 13.342 13.77 30.608 13.77z"/>
        <path fill="#FFC083" d="M47.25 21.932c4.016-3.394 9.09-6.159 15.224-8.293-2.542 2.463-5.021 3.98-5.201 9.066-.12 3.391-3.461 3.133-10.023-.773z"/>
        <path fill="#FFC083" d="M55.237 19.288c4.902-1.903 10.6-2.864 17.095-2.885-3.206 1.5-6.044 2.128-7.87 6.878-1.218 3.168-4.293 1.836-9.225-3.993z"/>
        <g fill="#FFC083">
            <path d="M18.302 41.065c-4.517 2.692-8.783 6.59-12.798 11.695 3.157-1.603 5.398-3.453 10.266-1.967 3.245.99 4.09-2.253 2.532-9.728z"/>
            <path d="M15.178 48.333c-4.517 2.692-8.783 6.59-12.798 11.695 3.157-1.603 5.398-3.453 10.266-1.967 3.245.99 4.09-2.252 2.532-9.728z"/>
            <path d="M16.613 53.087C7.996 56.391 3.086 62.22 1.883 70.576c3.486-4.823 5.947-6.707 13.606-6.31 5.107.266 5.481-3.46 1.124-11.179z"/>
            <path d="M7.011 64.406c-2.88 4.4-5.005 9.773-6.376 16.121C2.77 77.703 3.973 75.057 9 74.26c3.35-.532 2.688-3.817-1.989-9.853z"/>
            <path d="M7.39 72.308c-2.88 4.4-5.006 9.773-6.377 16.121 2.135-2.824 3.338-5.469 8.365-6.268 3.35-.532 2.688-3.817-1.989-9.853z"/>
            <path d="M10.764 75.952C4.467 82.699 2.609 90.09 5.19 98.128c1.018-5.863 2.405-8.635 9.463-11.636 4.706-2 3.409-5.513-3.89-10.54z"/>
            <g>
                <path d="M8.025 88.885c-.57 5.227-.023 10.98 1.637 17.26.62-3.486.492-6.39 4.608-9.383 2.744-1.996.662-4.622-6.245-7.877z"/>
                <path d="M11.949 95.754c-.569 5.228-.023 10.98 1.638 17.26.62-3.486.49-6.39 4.607-9.383 2.744-1.996.662-4.621-6.245-7.877z"/>
                <path d="M16.61 97.47c-2.548 8.87-.847 16.3 5.102 22.288-1.754-5.686-1.777-8.786 3.15-14.663 3.284-3.919.533-6.46-8.252-7.626z"/>
            </g>
            <g>
                <path d="M18.918 109.229c2.037 4.848 5.304 9.615 9.8 14.301-1.147-3.35-2.667-5.826-.519-10.44 1.433-3.076-1.661-4.363-9.28-3.861z"/>
                <path d="M25.68 113.334c2.038 4.848 5.304 9.615 9.8 14.301-1.147-3.349-2.667-5.825-.518-10.44 1.432-3.075-1.662-4.362-9.281-3.86z"/>
                <path d="M30.589 112.575c2.072 8.993 7.161 14.666 15.268 17.02-4.29-4.122-5.814-6.822-4.354-14.352.973-5.02-2.665-5.909-10.914-2.668z"/>
            </g>
        </g>
        <g fill="#FFC083">
            <path d="M104.698 41.065c4.517 2.692 8.783 6.59 12.798 11.695-3.157-1.603-5.398-3.453-10.266-1.967-3.245.99-4.09-2.253-2.532-9.728z"/>
            <path d="M107.822 48.333c4.517 2.692 8.783 6.59 12.798 11.695-3.157-1.603-5.398-3.453-10.266-1.967-3.245.99-4.09-2.252-2.532-9.728z"/>
            <path d="M106.387 53.087c8.617 3.304 13.527 9.133 14.73 17.489-3.486-4.823-5.947-6.707-13.606-6.31-5.107.266-5.481-3.46-1.124-11.179z"/>
            <path d="M115.989 64.406c2.88 4.4 5.005 9.773 6.376 16.121-2.135-2.824-3.338-5.47-8.365-6.268-3.35-.532-2.688-3.817 1.989-9.853z"/>
            <path d="M115.61 72.308c2.88 4.4 5.006 9.773 6.377 16.121-2.135-2.824-3.338-5.469-8.365-6.268-3.35-.532-2.688-3.817 1.989-9.853z"/>
            <path d="M112.236 75.952c6.297 6.747 8.155 14.139 5.573 22.176-1.018-5.863-2.405-8.635-9.463-11.636-4.706-2-3.409-5.513 3.89-10.54z"/>
            <g>
                <path d="M114.975 88.885c.57 5.227.023 10.98-1.637 17.26-.62-3.486-.492-6.39-4.608-9.383-2.744-1.996-.662-4.622 6.245-7.877z"/>
                <path d="M111.051 95.754c.569 5.228.023 10.98-1.638 17.26-.62-3.486-.49-6.39-4.607-9.383-2.744-1.996-.662-4.621 6.245-7.877z"/>
                <path d="M106.39 97.47c2.548 8.87.847 16.3-5.102 22.288 1.754-5.686 1.777-8.786-3.15-14.663-3.284-3.919-.533-6.46 8.252-7.626z"/>
            </g>
            <g>
                <path d="M104.082 109.229c-2.037 4.848-5.304 9.615-9.8 14.301 1.147-3.35 2.667-5.826.519-10.44-1.433-3.076 1.661-4.363 9.28-3.861z"/>
                <path d="M97.32 113.334c-2.038 4.848-5.304 9.615-9.8 14.301 1.147-3.349 2.667-5.825.518-10.44-1.432-3.075 1.662-4.362 9.281-3.86z"/>
                <path d="M92.411 112.575c-2.072 8.993-7.161 14.666-15.268 17.02 4.29-4.122 5.814-6.822 4.354-14.352-.973-5.02 2.665-5.909 10.914-2.668z"/>
            </g>
        </g>
        <g transform="translate(31.459 54.13)">
            <use fill="#FFF" xlink:href="#a"/>
            <ellipse cx="12.698" cy="12.229" stroke="#E5AB74" stroke-width="2.4" rx="10.777" ry="10.74"/>
        </g>
        <path stroke="#767676" stroke-linecap="round" stroke-width="2.08" d="M40.511 68.892c.867-4.037 7.051-4.104 8.175 0"/>
        <g transform="translate(67.508 54.13)">
            <use fill="#FFF" xlink:href="#b"/>
            <ellipse cx="12.057" cy="12.229" stroke="#E5AB74" stroke-width="2.4" rx="10.777" ry="10.74"/>
        </g>
        <path stroke="#767676" stroke-linecap="round" stroke-width="2.08" d="M75.92 68.892c.867-4.037 7.051-4.104 8.175 0"/>
        <path fill="#FFF" d="M57.655 84.691c1.99 0 3.605-1.968 3.605-4.395 0-2.427-1.614-.95-3.605-.95-1.991 0-3.03.785-3.03 3.212 0 2.428 1.039 2.133 3.03 2.133zM66.307 84.691c-1.991 0-3.605-1.968-3.605-4.395 0-2.427 1.614-.95 3.605-.95 1.99 0 3.029.785 3.029 3.212 0 2.428-1.038 2.133-3.03 2.133z"/>
        <path stroke="#E08063" stroke-linecap="round" stroke-width="1.872" d="M69.379 82.822c-1.846 2.624-7.471 1.81-7.223-3.57M54.65 82.822c1.845 2.624 7.471 1.81 7.222-3.57"/>
        <path stroke="#78625B" stroke-linecap="round" stroke-width="1.872" d="M59.049 78.921h5.648"/>
        <g stroke="#FFF" stroke-linecap="round" stroke-width="1.84">
            <path d="M45.131 83.713H26.687M44.901 87.756l-10.91 2.32"/>
        </g>
        <g stroke="#FFF" stroke-linecap="round" stroke-width="1.84">
            <path d="M45.522 48.326l.534-5.082M39.846 48.78l-.814-5.141"/>
        </g>
        <g stroke="#FFF" stroke-linecap="round" stroke-width="1.84">
            <path d="M76.728 48.326l-.534-5.082M82.404 48.78l.814-5.141"/>
        </g>
        <g stroke="#FFF" stroke-linecap="round" stroke-width="1.84">
            <path d="M79.631 83.713h18.444M79.861 87.756l10.91 2.32"/>
        </g>
        <g>
            <g transform="translate(17.84 89.29)">
                <mask id="f" fill="#fff">
                    <use xlink:href="#c"/>
                </mask>
                <use fill="#000" filter="url(#d)" xlink:href="#c"/>
                <use fill="url(#e)" xlink:href="#c"/>
                <g mask="url(#f)">
                    <use fill="#000" filter="url(#g)" xlink:href="#h"/>
                    <use fill="#FDFEFF" xlink:href="#h"/>
                </g>
                <g mask="url(#f)">
                    <use fill="#000" filter="url(#i)" xlink:href="#j"/>
                    <use fill="#FFF" xlink:href="#j"/>
                </g>
            </g>
        </g>
        <path fill="#FFC083" d="M104.426 114.063h15.154v5.74c0 6.637-5.38 12.017-12.016 12.017h-3.138a8.879 8.879 0 1 1 0-17.758zM18.574 124.45H3.42v5.742c0 6.637 5.38 12.017 12.016 12.017h3.138a8.879 8.879 0 1 0 0-17.758z"/>
        <path fill="#FFF" d="M67.235 119.147a1.897 1.897 0 0 1-.901 1.141 1.808 1.808 0 0 1-1.422.152l-4.788-1.467 1.067-3.683 4.787 1.467c.987.302 1.551 1.374 1.257 2.39m1.615-7.55c.237.452.29.972.147 1.464-.294 1.015-1.336 1.595-2.323 1.293l-4.788-1.467 1.067-3.683 4.787 1.466c.478.147.873.476 1.11.928m2.143-1.193a4.305 4.305 0 0 0-2.557-2.137l-.634-.194.887-3.063-2.275-.697-.887 3.063-1.942-.595.887-3.063-.545-.168-2.209-.676-.854 2.953-2.691-.825-.76 2.624 2.691.824L57.34 118l-2.691-.824-.76 2.623 2.691.824-.721 2.492.545.167 2.208.677.753-2.603 1.947.597-.753 2.603 2.266.694.753-2.603.638.196a4.187 4.187 0 0 0 3.277-.35 4.376 4.376 0 0 0 2.078-2.63 4.526 4.526 0 0 0-.374-3.427 4.388 4.388 0 0 0 2.136-2.66 4.513 4.513 0 0 0-.34-3.371"/>
    </g>
</svg>
