<svg xmlns="http://www.w3.org/2000/svg" xmlns:xlink="http://www.w3.org/1999/xlink" width="239" height="237" viewBox="0 0 239 237">
    <defs>
        <linearGradient id="a" x1="50%" x2="50%" y1="0%" y2="100%">
            <stop offset="0%" stop-color="#098096"/>
            <stop offset="100%" stop-color="#63B3FF"/>
        </linearGradient>
        <path id="b" d="M22.226 249.928c-2.258-44.07 1.776-82.818 12.1-116.246 10.326-33.427 20.049-30.656 29.17 8.312-.988 10.273-2.087 16.716-3.295 19.327-1.812 3.917-11.096 24.913-14.37 33.811-3.274 8.898-8.56 21.937-11.504 29.545-2.945 7.607-9.08 21.607-8.312 25.25.511 2.43-.752 2.43-3.79 0z"/>
        <filter id="c" width="111.9%" height="103.5%" x="-6%" y="-1.8%" filterUnits="objectBoundingBox">
            <feOffset dx="-2" dy="-5" in="SourceAlpha" result="shadowOffsetInner1"/>
            <feComposite in="shadowOffsetInner1" in2="SourceAlpha" k2="-1" k3="1" operator="arithmetic" result="shadowInnerInner1"/>
            <feColorMatrix in="shadowInnerInner1" values="0 0 0 0 0.329873787 0 0 0 0 0.467890685 0 0 0 0 0.659279337 0 0 0 0.274796196 0"/>
        </filter>
        <linearGradient id="d" x1="85.343%" x2="50%" y1="-4.881%" y2="100%">
            <stop offset="0%" stop-color="#098096"/>
            <stop offset="100%" stop-color="#63B3FF"/>
        </linearGradient>
        <path id="e" d="M59.918 177.338c0-10.736-4.747-26.1-3.202-32.392 1.03-4.195 11.886-5.629 32.57-4.302.26 21.134-.759 34.052-3.058 38.754-2.298 4.702-8.439 12.42-18.42 23.156-1.192-5.385-3.051-8.005-5.58-7.86-2.528.144-4.159 1.57-4.89 4.278-.275-2.308.086-4.863 1.084-7.665 1.496-4.202 1.496-3.232 1.496-13.969z"/>
        <filter id="f" width="112.2%" height="106.4%" x="-6.1%" y="-3.2%" filterUnits="objectBoundingBox">
            <feOffset dx="-4" dy="1" in="SourceAlpha" result="shadowOffsetInner1"/>
            <feComposite in="shadowOffsetInner1" in2="SourceAlpha" k2="-1" k3="1" operator="arithmetic" result="shadowInnerInner1"/>
            <feColorMatrix in="shadowInnerInner1" values="0 0 0 0 0.329873787 0 0 0 0 0.467890685 0 0 0 0 0.659279337 0 0 0 0.274796196 0"/>
        </filter>
        <linearGradient id="g" x1="103.607%" x2="50%" y1="25.125%" y2="100%">
            <stop offset="0%" stop-color="#B1F0CA"/>
            <stop offset="100%" stop-color="#7ADC9A"/>
        </linearGradient>
        <linearGradient id="h" x1="0%" x2="143.283%" y1="50%" y2="100%">
            <stop offset="0%" stop-color="#FFF" stop-opacity="0"/>
            <stop offset="100%" stop-color="#C7D3FF"/>
        </linearGradient>
    </defs>
    <g fill="none" fill-rule="evenodd">
        <path fill="#FFE1CA" d="M204.97 52.299c1.243-7.783 2.655-13.683 4.236-17.7 1.58-4.016 2.768-7.34 3.563-9.972 1.331-.98 1.896-.491 1.693 1.468-.204 1.959-.768 4.793-1.693 8.504 3.314.827 5.53 1.646 6.646 2.455 1.676 1.215-.759 5.22-3.098 10.507a199.365 199.365 0 0 1-4.74 9.988l-6.607-5.25zM80.054 51.437c-1.244-7.783-2.656-13.682-4.236-17.7-1.58-4.016-2.768-7.34-3.563-9.972-1.332-.98-1.896-.49-1.693 1.468.203 1.959.767 4.794 1.693 8.505-3.314.827-5.53 1.645-6.647 2.455-1.675 1.214.76 5.22 3.099 10.507 1.56 3.524 3.14 6.853 4.74 9.987l6.607-5.25z"/>
        <g transform="translate(65.053 23.275)">
            <use fill="url(#a)" xlink:href="#b"/>
            <use fill="#000" filter="url(#c)" xlink:href="#b"/>
        </g>
        <g transform="translate(65.053 23.275)">
            <use fill="url(#d)" xlink:href="#e"/>
            <use fill="#000" filter="url(#f)" xlink:href="#e"/>
        </g>
        <path fill="url(#g)" d="M5.873 29.554c3.432 0 6.795-1.48 10.091-4.44 6.94 24.422 19.042 40.725 36.308 48.911 13.811 8.405 25.054 11.218 39.575 2.727 17.086 1.095 45.346-26.746 48.19-51.638.791 3.561 7.28 5.157 9.34 5.157-2.894 12.642-10.668 45.096-51.902 64.525-10.364 8.154-5.628 35.198-.8 47.87-6.741 5.771-39.805 11.8-70.302-4.785 6.59-3.102 19.243-34.21 10.268-50.055C19.41 67.89 9.63 41.913 5.873 29.554z" transform="translate(65.053 23.275)"/>
        <path fill="#19232F" d="M150.993 108.733c3.288 2.48 5.336 5.978 5.336 9.855 0 3.838-2.008 7.305-5.237 9.78 3.602 8.827 1.558 18.358-5.297 22.477-2.156 1.295-4.56 1.919-7.034 1.938-3.297 3.16-7.49 5.051-12.057 5.051-10.612 0-19.216-10.22-19.216-22.827 0-7.966 3.435-14.978 8.641-19.062-2.399-2.34-3.837-5.323-3.837-8.57 0-4.12 2.313-7.812 5.968-10.31 2.463-3.346 3.95-5.888 4.46-7.627.695-2.363.62-5.845-.227-10.445a14.124 14.124 0 0 1-.593-4.057c0-8.183 6.99-14.818 15.613-14.818s15.613 6.635 15.613 14.818c0 .903-.085 1.788-.248 2.647 3.823 2.133 6.388 5.596 6.634 9.544.057.121.103.243.137.366 1.637 5.824-3.034 15.123-6.671 18.278-.96.833-1.621 1.82-1.985 2.962z"/>
        <path fill="#1B3554" d="M127.785 217.104c2.71 0 4.961 2.089 5.164 4.79l1.504 20.062a6.686 6.686 0 0 1-6.668 7.186 6.686 6.686 0 0 1-6.667-7.186l1.504-20.061a5.178 5.178 0 0 1 5.163-4.79z"/>
        <path stroke="#356BB0" stroke-linecap="round" stroke-width=".8" d="M131.508 207.29c1.907-.771 7.243-1.058 9.504.772" opacity=".385"/>
        <g>
            <path fill="#FFB883" d="M232.499 202.601c-1.598 1.18-3.122 2.161-4.571 2.942-3.018 1.626-6.836 1.649-6.907 1.491-.39-.86 3.273-4.841 5.813-5.33 1.523-.293 3.41.006 5.665.897z"/>
            <path fill="#FFDF87" d="M214.787 161.565c5.37 11.337 13.23 18.08 23.58 20.227-.025 2.75-1.347 7.858-5.674 20.518-.403 1.179-2.345.98-5.826-.593-2.307 4.134-4.16 5.902-5.56 5.304-12.138-5.184-17.236-10.305-18.938-17.086.228-7.432 4.367-16.889 12.418-28.37z"/>
        </g>
        <g>
            <path fill="#FF96BC" d="M-.048 24.328c7.882 2.678 12.567 11.757 14.447 20.971 5.771-3.833 15.02-11.445 21.68-18.035.317-.313.8-1.57 1.058-1.902 1.566-2.011.623-4.119.588-5.22C35.92 14.719 35.1 9.892 30.9 5.425c-2.154-2.29-4.123-3.986-5.073-4.518-4.115 1.426-7.622 8.2-25.876 23.42z"/>
            <path fill="#F46DA0" d="M33.353 21.576c2.292-.143 4.464 3.857 2.253 6.2 2.324-2.512 2.634-4.717 2.596-6.54-.039-1.825-.17-10.344-12.37-20.299 9.948 8.822 12.585 15.593 7.52 20.639z"/>
        </g>
        <g stroke="url(#h)" stroke-linecap="round" stroke-width="3.2" opacity=".38" transform="translate(1 229.92)">
            <path d="M121.701 34.742c41.233-.63 62.222-7.247 62.966-19.852 1.117-18.908-23.759-17.415-21.112-8.708"/>
        </g>
    </g>
</svg>
