<?xml version="1.0" encoding="UTF-8"?>
<svg width="397px" height="391px" viewBox="0 0 397 391" version="1.1" xmlns="http://www.w3.org/2000/svg" xmlns:xlink="http://www.w3.org/1999/xlink">
    <!-- Generator: Sketch 48.2 (47327) - http://www.bohemiancoding.com/sketch -->
    <title>send</title>
    <desc>Created with Sketch.</desc>
    <defs>
        <circle id="path-1" cx="195" cy="195" r="195"></circle>
        <linearGradient x1="50%" y1="100%" x2="50%" y2="0%" id="linearGradient-3">
            <stop stop-color="#52C142" offset="0%"></stop>
            <stop stop-color="#AAF2A2" offset="100%"></stop>
        </linearGradient>
        <circle id="path-4" cx="195" cy="195" r="195"></circle>
        <linearGradient x1="50%" y1="24.343%" x2="34.5629164%" y2="123.378%" id="linearGradient-6">
            <stop stop-color="#FFFFFF" offset="0%"></stop>
            <stop stop-color="#CEF1FF" offset="100%"></stop>
        </linearGradient>
        <linearGradient x1="50%" y1="24.343%" x2="39.4037726%" y2="123.378%" id="linearGradient-7">
            <stop stop-color="#FFFFFF" offset="0%"></stop>
            <stop stop-color="#CEF1FF" offset="100%"></stop>
        </linearGradient>
        <circle id="path-8" cx="195" cy="195" r="195"></circle>
        <linearGradient x1="0%" y1="2.22044605e-14%" x2="102%" y2="101%" id="linearGradient-10">
            <stop stop-color="#3023AE" offset="0%"></stop>
            <stop stop-color="#C86DD7" offset="100%"></stop>
        </linearGradient>
    </defs>
    <g id="Page-1" stroke="none" stroke-width="1" fill="none" fill-rule="evenodd">
        <g id="send">
            <g id="Group" transform="translate(0.000000, 1.000000)">
                <g id="a-link" fill="#70A0AD" fill-rule="nonzero">
                    <circle id="a" cx="195" cy="195" r="195"></circle>
                </g>
                <g id="Clipped">
                    <g id="Shape-Clipped">
                        <mask id="mask-2" fill="white">
                            <use xlink:href="#path-1"></use>
                        </mask>
                        <g id="path-1"></g>
                        <path d="M0.01,139.966 C0.168,129.6 2.357,119.727 6.198,110.727 C-8.114,101.861 -17.647,86.014 -17.647,67.941 C-17.647,40.165 4.87,17.647 32.647,17.647 C58.994,17.647 80.609,37.906 82.764,63.695 C95.681751,64.5264273 108.183053,68.5927719 119.118,75.52 C131.116,67.926 145.338,63.53 160.588,63.53 C203.472,63.53 238.235,98.293 238.235,141.176 C254.003,141.176 268.673,145.876 280.921,153.952 C293.348,127.627 320.135,109.412 351.176,109.412 C351.605,109.412 352.032,109.415 352.459,109.422 C351.603586,104.761345 351.174148,100.032505 351.176,95.294 C351.176,52.411 385.94,17.647 428.824,17.647 C471.707,17.647 506.471,52.411 506.471,95.294 C506.471,119.406 495.48,140.951 478.235,155.193 L478.235,448.235 L-26.47,448.235 L-26.47,130.588 C-17.6607705,133.76302 -8.83396762,136.889068 0.01,139.966 Z" id="Shape" fill="url(#linearGradient-3)" fill-rule="nonzero" mask="url(#mask-2)"></path>
                    </g>
                </g>
                <g id="Clipped">
                    <g id="Group-Clipped">
                        <mask id="mask-5" fill="white">
                            <use xlink:href="#path-4"></use>
                        </mask>
                        <g id="path-4"></g>
                        <g id="Group" mask="url(#mask-5)">
                            <g transform="translate(-11.000000, 173.000000)" id="Shape">
                                <g>
                                    <path d="M130.37,94.9 L166.61,94.9 L166.61,30.481 C166.61,29.181 167.233,27.961 168.287,27.199 L203.627,1.656 C205.043073,0.632450871 206.955927,0.632450871 208.372,1.656 L243.713,27.199 C244.766619,27.96032 245.390775,29.1811071 245.391,30.481 L245.391,94.9 L281.631,94.9 L281.631,30.481 C281.631,29.181 282.254,27.961 283.308,27.199 L318.648,1.656 C320.064073,0.632450871 321.976927,0.632450871 323.393,1.656 L358.734,27.199 C359.787619,27.96032 360.411775,29.1811071 360.412,30.481 L360.412,94.9 L412.762,94.9 L412.762,165.594 L360.412,165.594 L360.412,336.84 L281.63,336.84 L281.63,165.594 L245.39,165.594 L245.39,336.84 L166.61,336.84 L166.61,165.594 L130.37,165.594 L130.37,336.84 L51.588,336.84 L51.588,165.594 L0.814,165.594 L0.814,94.9 L51.588,94.9 L51.588,30.067 C51.588,29.027 52.088,28.051 52.93,27.441 L89.081,1.313 C90.2138588,0.494160696 91.7441412,0.494160696 92.877,1.313 L129.027,27.441 C129.870237,28.0500093 130.36981,29.0268364 130.37,30.067 L130.37,94.9 Z" fill="url(#linearGradient-7)" fill-rule="nonzero"></path>
                                </g>
                            </g>
                        </g>
                    </g>
                </g>
                <g id="Clipped">
                    <g id="Shape-Clipped">
                        <mask id="mask-9" fill="white">
                            <use xlink:href="#path-8"></use>
                        </mask>
                        <g id="path-8"></g>
                        <path d="M179.938984,424.851919 C173.505984,416.518919 164.019984,409.580919 151.480984,404.037919 C106.102984,390.754919 26.4089842,391.940919 -3.51901579,314.309919 C-30.9490158,243.161919 70.2349842,174.685919 98.5429842,204.665919 C118.602984,225.908919 92.8909842,256.545919 57.2119842,253.103919 C17.0519842,249.229919 -6.68601579,213.314919 1.23198421,174.685919 C16.9409842,98.0589183 137.703984,47.3599183 142.795984,43.8289183" id="Shape" stroke="#5C738E" stroke-width="3" stroke-dasharray="6.999999999999998,6.999999999999998" mask="url(#mask-9)" transform="translate(85.875530, 234.340419) rotate(-94.000000) translate(-85.875530, -234.340419) "></path>
                    </g>
                </g>
            </g>
            <polygon id="Shape" fill="url(#linearGradient-10)" fill-rule="nonzero" points="312.392 118.663 277.118 118.663 276.868 118.909 276.878 118.663 276.808 118.663 276.882 118.59 278.32 84.924 286.251 80.788 278.483 84.754 244.735 51.006 396.642 0.371 346.006 152.278"></polygon>
            <path d="M338.29,78.899 C337.971896,79.9780248 337.235089,80.8848088 336.244,81.417 C335.256008,81.9555695 334.093531,82.0762107 333.016,81.752 L322.15,78.516 L324.571,70.389 L335.436,73.625 C337.679605,74.294964 338.956717,76.655428 338.29,78.9 M341.954,62.245 C342.493,63.241 342.612,64.387 342.289,65.473 C341.617198,67.7140567 339.259461,68.9897295 337.016,68.326 L326.15,65.089 L328.57,56.962 L339.436,60.198 C340.514866,60.5164061 341.421546,61.2531285 341.954,62.244 M346.818,59.612 C345.590419,57.3286888 343.500518,55.6312744 341.014,54.898 L339.576,54.47 L341.589,47.712 L336.425,46.174 L334.413,52.932 L330.004,51.619 L332.017,44.861 L330.78,44.492 L325.769,43 L323.829,49.514 L317.72,47.695 L315.997,53.483 L322.104,55.302 L315.83,76.368 L309.723,74.549 L308,80.337 L314.107,82.156 L312.47,87.654 L313.706,88.022 L318.718,89.515 L320.428,83.773 L324.847,85.089 L323.137,90.831 L328.28,92.363 L329.99,86.621 L331.437,87.052 C333.919783,87.7977932 336.597643,87.5205746 338.875,86.282 C341.158897,85.0543929 342.856723,82.9640684 343.59,80.477 C344.343291,77.9463071 344.036518,75.2181945 342.74,72.918 C345.08541,71.7007514 346.835583,69.5827856 347.589,67.05 C348.336037,64.5673346 348.058768,61.8889865 346.819,59.612" id="Shape" fill="#FFFFFF" fill-rule="nonzero" transform="translate(328.000332, 67.681500) rotate(-15.000000) translate(-328.000332, -67.681500) "></path>
        </g>
    </g>
</svg>