<svg xmlns="http://www.w3.org/2000/svg" width="36" height="21" viewBox="0 0 36 21">
    <defs>
        <linearGradient id="a" x1="50%" x2="50%" y1="0%" y2="97.8%">
            <stop offset="0%" stop-color="#FDFBFC"/>
            <stop offset="100%" stop-color="#FFF"/>
            <stop offset="100%" stop-color="#E8EDF0"/>
        </linearGradient>
    </defs>
    <path fill="url(#a)" fill-rule="evenodd" d="M357.372 544.047l7.691-10.542c.181-.278.213-.31.246-.274.086-.115.185-.233.297-.353.608-.678 1.427-1.246 2.457-1.702 1.03-.457 2.219-.685 3.566-.685 1.929 0 3.58.443 4.954 1.33 1.373.887 2.338 2.179 2.892 3.875.397 1.174.595 2.726.595 4.657 0 1.93-.198 3.483-.595 4.657-.554 1.696-1.519 2.987-2.892 3.874-1.374.887-3.025 1.33-4.954 1.33-1.347 0-2.536-.227-3.566-.684-1.03-.457-1.85-1.024-2.457-1.702-.29-.313-.495-.607-.614-.88a2.094 2.094 0 0 1-.179-.842c0-.548.185-1.005.555-1.37.37-.365.832-.548 1.387-.548.344 0 .66.085.951.254.29.17.581.398.872.685.37.392.793.685 1.268.88.476.197 1.057.294 1.744.294.845 0 1.578-.202 2.199-.606.62-.405 1.076-1.024 1.367-1.86.159-.469.264-.984.317-1.545.053-.56.08-1.207.08-1.937s-.027-1.376-.08-1.937a6.827 6.827 0 0 0-.317-1.546c-.29-.835-.746-1.455-1.367-1.86-.62-.404-1.354-.606-2.2-.606-.686 0-1.267.098-1.743.294a3.755 3.755 0 0 0-1.2.782c-.033.033-.557.714-.609.783-.062.095-.094.125-.112.123-.042.062-.086.127-.13.195l-7.13 9.92c-.34.47-.534.805-.834.996-.554.593-1.701 1.614-2.689 2.04-1.307.565-2.354.678-3.701.678-1.929 0-3.58-.444-4.954-1.33-1.374-.888-2.338-2.18-2.893-3.875-.396-1.174-.594-2.727-.594-4.657 0-1.93.198-3.483.594-4.657.555-1.696 1.52-2.988 2.893-3.875 1.374-.887 3.025-1.33 4.954-1.33 1.347 0 2.536.228 3.566.685 1.03.456 1.85 1.024 2.457 1.702.29.313.495.607.614.88.119.274.178.555.178.842 0 .548-.185 1.004-.554 1.37-.37.365-.833.548-1.387.548-.344 0-.66-.085-.951-.255a4.444 4.444 0 0 1-.872-.685 3.636 3.636 0 0 0-1.268-.88c-.476-.196-1.057-.294-1.744-.294-.845 0-1.578.202-2.2.607-.62.404-1.076 1.024-1.366 1.859-.159.47-.264.985-.317 1.546-.053.56-.08 1.206-.08 1.937 0 .73.027 1.376.08 1.937.053.56.158 1.076.317 1.546.29.835.746 1.454 1.367 1.859.62.404 1.354.606 2.2.606.686 0 1.267-.097 1.743-.293.475-.196.898-.49 1.268-.88.194-.192.484-.553.872-1.083l.008.002z" transform="translate(-345 -530)"/>
</svg>
