<svg xmlns="http://www.w3.org/2000/svg" width="116" height="26" viewBox="0 0 116 26">
    <g fill="#FBFBFB" fill-rule="evenodd">
        <path d="M39.962 19.24c-.653 0-1.182-.2-1.587-.6-.405-.399-.608-.959-.608-1.68V2.51c0-.721.203-1.281.608-1.68.405-.4.934-.6 1.587-.6.654 0 1.183.2 1.588.6.405.399.608.959.608 1.68V16.96c0 .721-.203 1.281-.608 1.68-.405.4-.934.6-1.588.6zM51.878.58c.85-.387 1.836-.58 2.96-.58 1.019 0 1.927.174 2.724.522.797.347 1.483.83 2.058 1.448a6.28 6.28 0 0 1 1.313 2.183c.3.837.45 1.758.45 2.762V16.96c0 .721-.202 1.281-.607 1.68-.405.4-.934.6-1.587.6-.654 0-1.183-.2-1.588-.6-.405-.399-.607-.959-.607-1.68V7.92c0-1.21-.294-2.19-.882-2.936-.588-.747-1.483-1.12-2.685-1.12-1.176 0-2.071.373-2.685 1.12-.614.747-.921 1.725-.921 2.936v9.04c0 .721-.203 1.281-.608 1.68-.405.4-.934.6-1.587.6-.654 0-1.183-.2-1.588-.6-.405-.399-.608-.959-.608-1.68V2.51c0-.721.203-1.281.608-1.68.405-.4.934-.6 1.588-.6.653 0 1.156.181 1.509.542.352.36.581.824.686 1.39A5.482 5.482 0 0 1 51.878.58zm19.859 18.66c-.706 0-1.261-.194-1.666-.58-.405-.387-.817-1.07-1.235-2.048l-5.292-13.29a2.934 2.934 0 0 1-.156-.54 3.017 3.017 0 0 1-.04-.503c0-.592.203-1.081.608-1.468.405-.386.921-.58 1.548-.58.993 0 1.673.516 2.039 1.546l4.272 11.28h.078l4.116-11.28C76.375.747 77.054.232 78.047.232c.628 0 1.137.193 1.53.58.391.386.587.875.587 1.467 0 .18-.013.348-.04.503a2.934 2.934 0 0 1-.156.54l-5.292 13.29c-.418.979-.83 1.661-1.234 2.048-.405.386-.974.58-1.705.58zm18.153.231c-2.038 0-3.737-.457-5.096-1.371-1.359-.915-2.3-2.183-2.822-3.806a11.41 11.41 0 0 1-.49-1.99c-.118-.733-.176-1.59-.176-2.568 0-.98.052-1.842.156-2.589.105-.747.262-1.416.47-2.009.523-1.622 1.47-2.884 2.843-3.786C86.146.451 87.773 0 89.655 0c1.96 0 3.612.457 4.958 1.371 1.346.915 2.28 2.17 2.803 3.767a11.3 11.3 0 0 1 .47 2.028c.105.734.157 1.552.157 2.454 0 .437-.13.798-.392 1.081-.261.284-.64.425-1.137.425H85.97c-.157 0-.235.078-.235.232 0 .283.026.541.078.773.053.232.118.45.196.657.654 1.88 2.078 2.82 4.273 2.82.81 0 1.509-.11 2.097-.329a8.28 8.28 0 0 0 1.783-.946c.262-.18.523-.329.784-.444.262-.116.536-.174.823-.174.575 0 1.026.174 1.353.521.326.348.49.78.49 1.294 0 .67-.3 1.237-.902 1.7-.836.67-1.796 1.21-2.88 1.623-1.085.412-2.398.618-3.94.618zm3.724-11.822c0-.592-.079-1.12-.236-1.584a3.363 3.363 0 0 0-1.372-1.757c-.653-.425-1.424-.638-2.312-.638-.915 0-1.699.213-2.352.638a3.363 3.363 0 0 0-1.372 1.757 4.933 4.933 0 0 0-.235 1.584c0 .155.078.232.235.232h7.408c.157 0 .236-.077.236-.232zM102.32 26c-.627 0-1.13-.187-1.509-.56a1.852 1.852 0 0 1-.568-1.372c0-.54.183-.991.549-1.352.365-.36.875-.554 1.528-.58.68-.025 1.228-.18 1.646-.463.419-.283.81-.901 1.176-1.854l.55-1.507-6.233-15.028a2.35 2.35 0 0 1-.235-1.005c0-.592.209-1.081.627-1.468.418-.386.94-.58 1.568-.58.967 0 1.646.516 2.038 1.546l4.272 11.165h.079l4.037-11.165c.366-1.03 1.045-1.545 2.038-1.545.601 0 1.104.193 1.51.58.404.386.607.875.607 1.467 0 .284-.065.618-.196 1.005l-6.938 17.423c-.418 1.03-.836 1.887-1.254 2.57-.418.682-.87 1.223-1.352 1.622-.484.4-1.026.682-1.627.85-.601.167-1.28.251-2.038.251h-.275zM12.372 13.556l7.691-10.541c.181-.279.213-.312.246-.275.086-.115.185-.232.297-.353.608-.678 1.427-1.246 2.457-1.702C24.093.228 25.282 0 26.629 0c1.929 0 3.58.444 4.954 1.33 1.373.888 2.338 2.18 2.892 3.875.397 1.174.595 2.726.595 4.657 0 1.93-.198 3.483-.595 4.657-.554 1.696-1.519 2.987-2.892 3.875-1.374.887-3.025 1.33-4.954 1.33-1.347 0-2.536-.228-3.566-.685-1.03-.456-1.85-1.024-2.457-1.702-.29-.313-.495-.607-.614-.88a2.094 2.094 0 0 1-.179-.842c0-.548.185-1.005.555-1.37.37-.365.832-.548 1.387-.548.344 0 .66.085.951.255.29.17.581.398.872.685.37.39.793.684 1.268.88.476.196 1.057.294 1.744.294.845 0 1.578-.203 2.199-.607.62-.404 1.076-1.024 1.367-1.859.159-.47.264-.985.317-1.546.053-.56.08-1.206.08-1.937 0-.73-.027-1.376-.08-1.937a6.827 6.827 0 0 0-.317-1.546c-.29-.835-.746-1.454-1.367-1.859-.62-.404-1.354-.606-2.2-.606-.686 0-1.267.097-1.743.293a3.755 3.755 0 0 0-1.2.782c-.033.034-.557.714-.609.783-.062.095-.094.126-.112.124a9.999 9.999 0 0 0-.13.194l-7.13 9.92c-.34.47-.534.805-.834.996-.554.593-1.701 1.614-2.689 2.04-1.307.565-2.354.678-3.701.678-1.929 0-3.58-.443-4.954-1.33-1.374-.888-2.338-2.179-2.893-3.875C.198 13.345 0 11.793 0 9.862c0-1.93.198-3.483.594-4.657.555-1.696 1.52-2.987 2.893-3.874C4.861.444 6.512 0 8.441 0c1.347 0 2.536.228 3.566.685 1.03.456 1.85 1.024 2.457 1.702.29.313.495.607.614.88.119.275.178.555.178.842 0 .548-.185 1.005-.554 1.37-.37.365-.833.548-1.387.548-.344 0-.66-.085-.951-.255a4.444 4.444 0 0 1-.872-.684 3.636 3.636 0 0 0-1.268-.881c-.476-.196-1.057-.293-1.744-.293-.845 0-1.578.202-2.2.606-.62.405-1.076 1.024-1.366 1.859-.159.47-.264.985-.317 1.546-.053.56-.08 1.207-.08 1.937s.027 1.376.08 1.937c.053.561.158 1.076.317 1.546.29.835.746 1.455 1.367 1.859.62.404 1.354.607 2.2.607.686 0 1.267-.098 1.743-.294.475-.196.898-.49 1.268-.88.194-.192.484-.553.872-1.083l.008.002z"/>
    </g>
</svg>
