<svg xmlns="http://www.w3.org/2000/svg" xmlns:xlink="http://www.w3.org/1999/xlink" width="442" height="272" viewBox="0 0 442 272">
    <defs>
        <filter id="a" width="101.3%" height="102.3%" x="-.6%" y="-1.1%" filterUnits="objectBoundingBox">
            <feGaussianBlur in="SourceGraphic" stdDeviation=".9"/>
        </filter>
        <linearGradient id="b" x1="100%" x2=".824%" y1="58.305%" y2="58.305%">
            <stop offset="0%" stop-color="#E8ECEF"/>
            <stop offset="49.249%" stop-color="#F0F2F4"/>
            <stop offset="100%" stop-color="#E7ECEF"/>
        </linearGradient>
        <linearGradient id="e" x1="50%" x2="50%" y1="0%" y2="97.8%">
            <stop offset="0%" stop-color="#FDFBFC"/>
            <stop offset="93.9%" stop-color="#EBEFF2"/>
            <stop offset="100%" stop-color="#E8EDF0"/>
        </linearGradient>
        <path id="d" d="M227.564 104.662l195.53 141.443a3.6 3.6 0 0 1-2.11 6.517H20.429a3.6 3.6 0 0 1-2.11-6.517l195.53-141.443a11.7 11.7 0 0 1 13.715 0z"/>
        <filter id="c" width="101.7%" height="104.7%" x="-.8%" y="-3%" filterUnits="objectBoundingBox">
            <feOffset dy="-1" in="SourceAlpha" result="shadowOffsetOuter1"/>
            <feGaussianBlur in="shadowOffsetOuter1" result="shadowBlurOuter1" stdDeviation="1"/>
            <feColorMatrix in="shadowBlurOuter1" values="0 0 0 0 0 0 0 0 0 0 0 0 0 0 0 0 0 0 0.04 0"/>
        </filter>
        <linearGradient id="h" x1="50%" x2="50%" y1="0%" y2="97.8%">
            <stop offset="0%" stop-color="#FDFBFC"/>
            <stop offset="93.9%" stop-color="#E1E3ED"/>
            <stop offset="100%" stop-color="#DADDE7"/>
        </linearGradient>
        <path id="g" d="M5.867 116.043L209.522 10.878a6.3 6.3 0 0 1 5.716-.034l209.695 105.209a3.6 3.6 0 0 1 1.985 3.218v13.448a3.6 3.6 0 0 1-3.6 3.6H7.518a3.6 3.6 0 0 1-3.6-3.6v-13.477a3.6 3.6 0 0 1 1.949-3.199z"/>
        <filter id="f" width="105.2%" height="117.6%" x="-2.6%" y="-8%" filterUnits="objectBoundingBox">
            <feOffset dy="1" in="SourceAlpha" result="shadowOffsetOuter1"/>
            <feGaussianBlur in="shadowOffsetOuter1" result="shadowBlurOuter1" stdDeviation="3.5"/>
            <feColorMatrix in="shadowBlurOuter1" values="0 0 0 0 0 0 0 0 0 0 0 0 0 0 0 0 0 0 0.09 0"/>
        </filter>
        <filter id="i" width="105%" height="116.8%" x="-2.5%" y="-7.6%" filterUnits="objectBoundingBox">
            <feOffset dy="7" in="SourceAlpha" result="shadowOffsetInner1"/>
            <feComposite in="shadowOffsetInner1" in2="SourceAlpha" k2="-1" k3="1" operator="arithmetic" result="shadowInnerInner1"/>
            <feColorMatrix in="shadowInnerInner1" result="shadowMatrixInner1" values="0 0 0 0 0.220397534 0 0 0 0 0.220397534 0 0 0 0 0.220397534 0 0 0 0.14025702 0"/>
            <feGaussianBlur in="SourceAlpha" result="shadowBlurInner2" stdDeviation="1"/>
            <feOffset dy="1" in="shadowBlurInner2" result="shadowOffsetInner2"/>
            <feComposite in="shadowOffsetInner2" in2="SourceAlpha" k2="-1" k3="1" operator="arithmetic" result="shadowInnerInner2"/>
            <feColorMatrix in="shadowInnerInner2" result="shadowMatrixInner2" values="0 0 0 0 1 0 0 0 0 1 0 0 0 0 1 0 0 0 0.118461277 0"/>
            <feMerge>
                <feMergeNode in="shadowMatrixInner1"/>
                <feMergeNode in="shadowMatrixInner2"/>
            </feMerge>
        </filter>
    </defs>
    <g fill="none" fill-rule="evenodd">
        <path d="M7.076 14.6l211.5 96.837 211.5-96.836v235.081a3.6 3.6 0 0 1-3.6 3.6h-415.8a3.6 3.6 0 0 1-3.6-3.6V14.601z" filter="url(#a)" opacity=".2" transform="rotate(-3 374.33 23.376)"/>
        <path fill="url(#b)" fill-opacity=".94" d="M7.028 12.8l211.5 107.432 211.5-107.431v236.883a3.6 3.6 0 0 1-3.6 3.6h-415.8a3.6 3.6 0 0 1-3.6-3.6V12.8z" transform="rotate(-3 374.282 22.477)"/>
        <g transform="rotate(-3 376.46 67.604)">
            <use fill="#000" filter="url(#c)" xlink:href="#d"/>
            <use fill="url(#e)" xlink:href="#d"/>
        </g>
        <g transform="scale(1 -1) rotate(3 3185.65 110.565)">
            <use fill="#000" filter="url(#f)" xlink:href="#g"/>
            <use fill="url(#h)" xlink:href="#g"/>
            <use fill="#000" filter="url(#i)" xlink:href="#g"/>
        </g>
    </g>
</svg>
