<?xml version="1.0" encoding="UTF-8"?>
<svg width="81px" height="88px" viewBox="0 0 81 88" version="1.1" xmlns="http://www.w3.org/2000/svg" xmlns:xlink="http://www.w3.org/1999/xlink">
    <!-- Generator: Sketch 48.2 (47327) - http://www.bohemiancoding.com/sketch -->
    <title>Group</title>
    <desc>Created with Sketch.</desc>
    <defs>
        <linearGradient x1="0%" y1="0%" x2="102%" y2="101%" id="linearGradient-1">
            <stop stop-color="#3023AE" offset="0%"></stop>
            <stop stop-color="#C86DD7" offset="100%"></stop>
        </linearGradient>
        <linearGradient x1="50%" y1="0%" x2="50%" y2="97.8%" id="linearGradient-2">
            <stop stop-color="#FDFBFC" offset="0%"></stop>
            <stop stop-color="#FFFFFF" offset="100%"></stop>
            <stop stop-color="#E8EDF0" offset="100%"></stop>
        </linearGradient>
    </defs>
    <g id="Page-1" stroke="none" stroke-width="1" fill="none" fill-rule="evenodd">
        <g id="Group" transform="translate(0.000000, -1.000000)">
            <g id="seal" transform="translate(6.000000, 14.000000)" fill="url(#linearGradient-1)" fill-rule="nonzero">
                <circle id="Oval" cx="37.5" cy="37.5" r="37.5"></circle>
            </g>
            <polygon id="Shape" fill="#FFFFFF" fill-rule="nonzero" points="0.441 24.932 42.011 0.932 49.511 13.922 7.941 37.922"></polygon>
            <path d="M49.092,14.41 C43.539,28.174 30.055,37.887 14.302,37.887 C12.522,37.887 10.77,37.763 9.057,37.524 L49.092,14.409 L49.092,14.41 Z" id="Shape" fill="#3E1798" fill-rule="nonzero"></path>
            <g id="logo" transform="translate(26.000000, 41.000000)" fill="url(#linearGradient-2)">
                <path d="M12.372,14.047 L20.063,3.505 C20.244,3.227 20.276,3.195 20.309,3.231 C20.395,3.116 20.494,2.998 20.606,2.878 C21.214,2.2 22.033,1.632 23.063,1.176 C24.093,0.719 25.282,0.491 26.629,0.491 C28.558,0.491 30.209,0.934 31.583,1.821 C32.956,2.708 33.921,4 34.475,5.696 C34.872,6.87 35.07,8.422 35.07,10.353 C35.07,12.283 34.872,13.836 34.475,15.01 C33.921,16.706 32.956,17.997 31.583,18.884 C30.209,19.771 28.558,20.214 26.629,20.214 C25.282,20.214 24.093,19.987 23.063,19.53 C22.033,19.073 21.213,18.506 20.606,17.828 C20.316,17.515 20.111,17.221 19.992,16.948 C19.8746654,16.6827585 19.813711,16.3960344 19.813,16.106 C19.813,15.558 19.998,15.101 20.368,14.736 C20.738,14.371 21.2,14.188 21.755,14.188 C22.099,14.188 22.415,14.273 22.706,14.442 C22.996,14.612 23.287,14.84 23.578,15.127 C23.948,15.519 24.371,15.812 24.846,16.007 C25.322,16.204 25.903,16.301 26.59,16.301 C27.435,16.301 28.168,16.099 28.789,15.695 C29.409,15.29 29.865,14.671 30.156,13.835 C30.315,13.366 30.42,12.851 30.473,12.29 C30.526,11.73 30.553,11.083 30.553,10.353 C30.553,9.623 30.526,8.977 30.473,8.416 C30.4274525,7.89014509 30.3210752,7.37134632 30.156,6.87 C29.866,6.035 29.41,5.415 28.789,5.01 C28.169,4.606 27.435,4.404 26.589,4.404 C25.903,4.404 25.322,4.502 24.846,4.698 C24.3995301,4.87925712 23.9921198,5.14475283 23.646,5.48 C23.613,5.513 23.089,6.194 23.037,6.263 C22.975,6.358 22.943,6.388 22.925,6.386 C22.883,6.448 22.839,6.513 22.795,6.581 L15.665,16.501 C15.325,16.971 15.131,17.306 14.831,17.497 C14.277,18.09 13.13,19.111 12.142,19.537 C10.835,20.102 9.788,20.215 8.441,20.215 C6.512,20.215 4.861,19.771 3.487,18.885 C2.113,17.997 1.149,16.705 0.594,15.01 C0.198,13.836 5.68434189e-14,12.283 5.68434189e-14,10.353 C5.68434189e-14,8.423 0.198,6.87 0.594,5.696 C1.149,4 2.114,2.708 3.487,1.821 C4.861,0.934 6.512,0.491 8.441,0.491 C9.788,0.491 10.977,0.719 12.007,1.176 C13.037,1.632 13.857,2.2 14.464,2.878 C14.754,3.191 14.959,3.485 15.078,3.758 C15.197,4.032 15.256,4.313 15.256,4.6 C15.256,5.148 15.071,5.604 14.702,5.97 C14.332,6.335 13.869,6.518 13.315,6.518 C12.971,6.518 12.655,6.433 12.364,6.263 C12.0458744,6.07196831 11.7529278,5.84184397 11.492,5.578 C11.1371797,5.19730416 10.7047722,4.89721065 10.224,4.698 C9.748,4.502 9.167,4.404 8.48,4.404 C7.635,4.404 6.902,4.606 6.28,5.011 C5.66,5.415 5.204,6.035 4.914,6.87 C4.755,7.34 4.65,7.855 4.597,8.416 C4.544,8.976 4.517,9.622 4.517,10.353 C4.517,11.083 4.544,11.729 4.597,12.29 C4.65,12.85 4.755,13.366 4.914,13.836 C5.204,14.671 5.66,15.29 6.281,15.695 C6.901,16.099 7.635,16.301 8.481,16.301 C9.167,16.301 9.748,16.204 10.224,16.008 C10.699,15.812 11.122,15.518 11.492,15.128 C11.686,14.936 11.976,14.575 12.364,14.045 L12.372,14.047 Z" id="Shape"></path>
            </g>
        </g>
    </g>
</svg>