<svg xmlns="http://www.w3.org/2000/svg" xmlns:xlink="http://www.w3.org/1999/xlink" width="150" height="150" viewBox="0 0 150 150">
    <defs>
        <circle id="a" cx="75" cy="75" r="75"/>
        <linearGradient id="c" x1="107.099%" x2="20.494%" y1="0%" y2="94.427%">
            <stop offset="0%" stop-color="#FF9CC3"/>
            <stop offset="100%" stop-color="#FF6363"/>
        </linearGradient>
        <linearGradient id="f" x1="100%" x2="0%" y1="100%" y2="100%">
            <stop offset="0%" stop-color="#FFF184"/>
            <stop offset="100%" stop-color="#FFDF4C"/>
        </linearGradient>
        <path id="e" d="M16.44 0h30.39a4 4 0 0 1 4 4v4.53H12.44V4a4 4 0 0 1 4-4z"/>
        <filter id="d" width="110.4%" height="193.8%" x="-5.2%" y="-23.4%" filterUnits="objectBoundingBox">
            <feOffset dy="4" in="SourceAlpha" result="shadowOffsetOuter1"/>
            <feColorMatrix in="shadowOffsetOuter1" values="0 0 0 0 0 0 0 0 0 0 0 0 0 0 0 0 0 0 0.0621603261 0"/>
        </filter>
        <linearGradient id="i" x1="108.975%" x2="-3.73%" y1="73.79%" y2="6.003%">
            <stop offset="0%" stop-color="#F0D6C2"/>
            <stop offset="100%" stop-color="#DCAC8F"/>
        </linearGradient>
        <path id="h" d="M15.304 0h57.544c6.489 0 11.75 5.26 11.75 11.749V22.87a3 3 0 0 1-.252 1.202l-2.172 4.97a9.59 9.59 0 0 0 .29 8.287l1.791 3.42a3 3 0 0 1 .342 1.392v46.072c0 9.39-7.61 17-17 17H20.555c-9.39 0-17-7.61-17-17V42.142a3 3 0 0 1 .342-1.391l1.79-3.42a9.59 9.59 0 0 0 .291-8.288l-2.172-4.97a3 3 0 0 1-.251-1.202V11.749c0-6.49 5.26-11.75 11.749-11.75z"/>
        <filter id="g" width="119.7%" height="109.5%" x="-4.9%" y="-3.8%" filterUnits="objectBoundingBox">
            <feOffset dx="8" dy="2" in="SourceAlpha" result="shadowOffsetOuter1"/>
            <feColorMatrix in="shadowOffsetOuter1" values="0 0 0 0 0 0 0 0 0 0 0 0 0 0 0 0 0 0 0.215692935 0"/>
        </filter>
        <linearGradient id="j" x1="67.28%" x2="0%" y1="28.636%" y2="59.967%">
            <stop offset="0%" stop-color="#FFF9E8"/>
            <stop offset="100%" stop-color="#FFEAB8"/>
        </linearGradient>
        <path id="l" d="M132.481 69.27c1.24-3.071.936-6.55-.815-9.36l-.074-.119.119.074a10.366 10.366 0 0 0 9.36.815 10.16 10.16 0 0 0 .888 9.315l.297.46-.46-.297a10.16 10.16 0 0 0-9.315-.888z"/>
        <filter id="k" width="522%" height="522%" x="-211%" y="-211%" filterUnits="objectBoundingBox">
            <feOffset in="SourceAlpha" result="shadowOffsetOuter1"/>
            <feGaussianBlur in="shadowOffsetOuter1" result="shadowBlurOuter1" stdDeviation="7.5"/>
            <feColorMatrix in="shadowBlurOuter1" values="0 0 0 0 1 0 0 0 0 1 0 0 0 0 1 0 0 0 0.5 0"/>
        </filter>
        <path id="n" d="M51.058 36.78c1.735-4.3 1.31-9.17-1.141-13.104l-.103-.166.165.103a14.512 14.512 0 0 0 13.105 1.141 14.224 14.224 0 0 0 1.242 13.04l.416.645-.644-.416a14.224 14.224 0 0 0-13.04-1.243z"/>
        <filter id="m" width="401.4%" height="401.4%" x="-150.7%" y="-150.7%" filterUnits="objectBoundingBox">
            <feOffset in="SourceAlpha" result="shadowOffsetOuter1"/>
            <feGaussianBlur in="shadowOffsetOuter1" result="shadowBlurOuter1" stdDeviation="7.5"/>
            <feColorMatrix in="shadowBlurOuter1" values="0 0 0 0 1 0 0 0 0 1 0 0 0 0 1 0 0 0 0.5 0"/>
        </filter>
    </defs>
    <g fill="none" fill-rule="evenodd">
        <mask id="b" fill="#fff">
            <use xlink:href="#a"/>
        </mask>
        <use fill="#D6EFFB" xlink:href="#a"/>
        <g mask="url(#b)">
            <path fill="#FFF" d="M128.946 82.216c7.716 2.774 13.234 10.156 13.234 18.827v34.644c0 11.046-8.954 20-20 20h-17.583c-11.046 0-20-8.954-20-20v-34.644c0-8.9 5.813-16.442 13.849-19.036a4.265 4.265 0 0 1 3.924-5.94h22.748a4.265 4.265 0 0 1 3.828 6.15z" opacity=".882"/>
            <path fill="url(#c)" d="M0 32.701c11.925-4.901 22.149-6.052 30.673-3.454 8.524 2.6 17.494 2.6 26.91 0V86.02H0V32.701z" opacity=".874" transform="translate(81.754 69.668)"/>
            <g fill="#F26A6A" opacity=".7" transform="translate(98.104 101.659)">
                <circle cx="38.033" cy="5.332" r="1.777"/>
                <circle cx="3.555" cy="34.834" r="3.555"/>
                <circle cx="25.237" cy="33.768" r="6.043"/>
                <circle cx="3.199" cy="18.128" r="1.066"/>
                <circle cx="10.308" cy="2.488" r="2.488"/>
            </g>
            <g fill="#C34A4A">
                <path d="M107.034 123.737c2.566.942 5.088 1.412 7.566 1.412 2.461 0 4.923-.464 7.385-1.394a1.954 1.954 0 0 0 1.264-1.828.876.876 0 0 0-1.19-.818c-2.478.947-4.979 1.42-7.503 1.42-2.531 0-5.062-.475-7.593-1.428a.882.882 0 0 0-1.193.826c0 .809.504 1.532 1.264 1.81zM104.602 109.479a3.579 3.579 0 0 1 3.579 3.579v.215a.875.875 0 0 1-1.355.731c-.743-.487-1.49-.731-2.243-.731-.756 0-1.513.246-2.27.74a.883.883 0 0 1-1.365-.74v-.14a3.654 3.654 0 0 1 3.654-3.654zM125.094 109.479a3.579 3.579 0 0 1 3.579 3.579v.215a.875.875 0 0 1-1.355.731c-.742-.487-1.49-.731-2.242-.731-.757 0-1.514.246-2.27.74a.883.883 0 0 1-1.366-.74v-.14a3.654 3.654 0 0 1 3.654-3.654z"/>
            </g>
            <g transform="translate(81.754 69.668)">
                <use fill="#000" filter="url(#d)" xlink:href="#e"/>
                <use fill="url(#f)" xlink:href="#e"/>
            </g>
        </g>
        <g mask="url(#b)">
            <g transform="translate(7.82 53.318)">
                <use fill="#000" filter="url(#g)" xlink:href="#h"/>
                <use fill="url(#i)" xlink:href="#h"/>
                <path fill="url(#j)" d="M11.75 4.265h53.989c6.489 0 11.75 5.26 11.75 11.749v11.148a3 3 0 0 1-.233 1.157l-2.09 5a9.935 9.935 0 0 0 .283 8.277l1.722 3.44a3 3 0 0 1 .317 1.343v46.1c0 9.39-7.61 17-17 17H17c-9.389 0-17-7.61-17-17v-46.1a3 3 0 0 1 .317-1.343l1.722-3.44a9.935 9.935 0 0 0 .282-8.278l-2.089-5A3 3 0 0 1 0 27.163V16.014c0-6.489 5.26-11.75 11.75-11.75z"/>
                <circle cx="28.791" cy="44.431" r="3.199" fill="#FFEBB9"/>
                <circle cx="53.673" cy="57.227" r="5.332" fill="#FFEBB9"/>
                <circle cx="45.853" cy="32.346" r="1.777" fill="#FFEBB9"/>
                <circle cx="16.706" cy="62.915" r="1.777" fill="#FFF6E0"/>
                <circle cx="17.417" cy="23.104" r="8.175" fill="#FFEBB9"/>
                <circle cx="45.142" cy="89.218" r="8.175" fill="#FFF3D6"/>
                <g fill="#B08D78" opacity=".758">
                    <path d="M29.216 53.074c3.027 1.11 6.002 1.665 8.924 1.665 2.904 0 5.807-.548 8.71-1.644a2.304 2.304 0 0 0 1.491-2.156 1.033 1.033 0 0 0-1.402-.965c-2.923 1.117-5.873 1.676-8.85 1.676-2.986 0-5.972-.562-8.957-1.685a1.04 1.04 0 0 0-1.407.974c0 .954.595 1.806 1.49 2.135zM26.348 36.256a4.221 4.221 0 0 1 4.22 4.221v.254a1.032 1.032 0 0 1-1.597.863c-.876-.575-1.758-.863-2.645-.863-.893 0-1.785.291-2.678.873a1.042 1.042 0 0 1-1.61-.873v-.165a4.31 4.31 0 0 1 4.31-4.31zM50.518 36.256a4.221 4.221 0 0 1 4.221 4.221v.254a1.032 1.032 0 0 1-1.598.863c-.875-.575-1.757-.863-2.644-.863-.893 0-1.786.291-2.678.873a1.042 1.042 0 0 1-1.61-.873v-.165a4.31 4.31 0 0 1 4.31-4.31z"/>
                </g>
            </g>
        </g>
        <g mask="url(#b)" transform="rotate(45 136.924 65.123)">
            <use fill="#000" filter="url(#k)" xlink:href="#l"/>
            <use fill="#FFF" xlink:href="#l"/>
        </g>
        <g mask="url(#b)" transform="rotate(45 57.278 30.975)">
            <use fill="#000" filter="url(#m)" xlink:href="#n"/>
            <use fill="#FFF" xlink:href="#n"/>
        </g>
    </g>
</svg>
