<?xml version="1.0" encoding="UTF-8"?>
<svg width="235px" height="210px" viewBox="0 0 235 210" version="1.1" xmlns="http://www.w3.org/2000/svg" xmlns:xlink="http://www.w3.org/1999/xlink">
    <!-- Generator: Sketch 48.2 (47327) - http://www.bohemiancoding.com/sketch -->
    <title>us</title>
    <desc>Created with Sketch.</desc>
    <defs>
        <path d="M10.174,10.196 C15.793,10.196 20.348,5.631 20.348,0 L0,0 C0,5.631 4.555,10.196 10.174,10.196 Z" id="path-1"></path>
        <path d="M10.174,10.196 C15.793,10.196 20.348,5.631 20.348,0 L0,0 C0,5.631 4.555,10.196 10.174,10.196 Z" id="path-3"></path>
        <path d="M8.609,8.628 C13.363,8.628 17.218,4.765 17.218,0 L0,0 C0,4.765 3.854,8.628 8.609,8.628 Z" id="path-5"></path>
        <path d="M8.609,8.628 C13.363,8.628 17.218,4.765 17.218,0 L0,0 C0,4.765 3.854,8.628 8.609,8.628 Z" id="path-7"></path>
        <path d="M104.8,43.361 C104.8,27.041 93.455,17.681 76.811,10.561 C69.521,7.444 61.215,0.869 52.4,0.869 C41.782,0.869 31.902,8.24 23.647,12.642 C9.403,20.237 0,28.503 0,43.361 C0,66.83 104.8,66.83 104.8,43.361 Z" id="path-9"></path>
        <path d="M13.6,13.63 C21.111,13.63 27.2,7.528 27.2,0 L0,0 C0,7.528 6.089,13.63 13.6,13.63 Z" id="path-11"></path>
        <path d="M13.6,13.63 C21.111,13.63 27.2,7.528 27.2,0 L0,0 C0,7.528 6.089,13.63 13.6,13.63 Z" id="path-13"></path>
    </defs>
    <g id="Page-1" stroke="none" stroke-width="1" fill="none" fill-rule="evenodd">
        <g id="us">
            <circle id="b" fill="#3B3F59" fill-rule="nonzero" cx="118" cy="102" r="102"></circle>
            <g id="Group" transform="translate(0.000000, 63.278000)">
                <path d="M78.4,126.164 C78.4,113.955 69.913,106.953 57.462,101.627 C52.008,99.295 45.794,94.375 39.2,94.375 C31.257,94.375 23.866,99.89 17.69,103.183 C7.035,108.865 0,115.049 0,126.164 C0,143.721 78.4,143.721 78.4,126.164 Z" id="Shape" fill="#2A3D49" fill-rule="nonzero"></path>
                <path d="M38.302,73.383 C40.8217797,73.3829105 43.23526,74.3983466 44.9970492,76.1998428 C46.7588383,78.001339 47.7202403,80.436848 47.664,82.956 L47.393,95.083 C47.4778726,98.3862242 45.7641305,101.475508 42.9167621,103.152108 C40.0693937,104.828707 36.5366063,104.828707 33.6892379,103.152108 C30.8418695,101.475508 29.1281274,98.3862242 29.213,95.083 L28.941,82.956 C28.8847636,80.4370214 29.8460296,78.0016666 31.6076012,76.2002003 C33.3691729,74.398734 35.7823938,73.3831796 38.302,73.383 Z" id="Shape" fill="#C4A588" fill-rule="nonzero"></path>
                <path d="M38.302,13.63 C51.868,13.63 62.864,24.627 62.864,38.192 C62.864,38.382 62.862,38.57 62.858,38.759 L62.182,68.042 C61.882,81.016 51.279,91.376 38.302,91.376 C25.325,91.376 14.722,81.016 14.423,68.042 L13.747,38.759 C13.434,25.197 24.174,13.949 37.735,13.637 C37.925,13.632 38.113,13.63 38.302,13.63 Z" id="Shape" fill="#EBCFB6" fill-rule="nonzero"></path>
                <path d="M13.966,56.378 C15.59,67.04 17.52,73.781 19.754,76.6 C23.898,81.827 30.77,87.648 38.118,87.648 C45.37,87.648 52.57,81.691 56.774,76.6 C59.11,73.773 61.064,67.033 62.638,56.38 L62.084,85.68 C61.839,98.639 51.264,109.016 38.302,109.016 C25.341,109.016 14.766,98.639 14.521,85.68 L13.966,56.38 L13.966,56.378 Z" id="Shape" fill="#FF9575" fill-rule="nonzero"></path>
                <ellipse id="Oval" fill="#FF9575" fill-rule="nonzero" cx="38.4" cy="94.608" rx="12" ry="12.026"></ellipse>
                <ellipse id="Oval" fill="#EBCFB6" fill-rule="nonzero" cx="13.466" cy="52.09" rx="5.087" ry="5.698"></ellipse>
                <ellipse id="Oval" fill="#EBCFB6" fill-rule="nonzero" cx="63.139" cy="52.09" rx="5.087" ry="5.698"></ellipse>
                <path d="M28.165,47.188 C30.1274295,47.1879999 31.7184478,48.7785705 31.719,50.741 L31.719,50.963 C31.7187874,51.2825463 31.5434163,51.5762585 31.2622125,51.7280292 C30.9810088,51.8797999 30.6392358,51.8651996 30.372,51.69 C29.635,51.206 28.894,50.963 28.147,50.963 C27.397,50.963 26.646,51.208 25.895,51.698 C25.6251612,51.874179 25.2804922,51.8883743 24.9970798,51.7349811 C24.7136675,51.5815878 24.5370647,51.2852608 24.537,50.963 L24.537,50.816 C24.537,48.8123109 26.1613109,47.188 28.165,47.188 Z" id="Shape" fill="#81685D" fill-rule="nonzero"></path>
                <g transform="translate(28.128000, 71.590000)">
                    <g id="c-link" fill="#372C28" fill-rule="nonzero">
                        <path d="M10.174,10.196 C15.793,10.196 20.348,5.631 20.348,0 L0,0 C0,5.631 4.555,10.196 10.174,10.196 Z" id="c"></path>
                    </g>
                    <g id="Clipped">
                        <mask id="mask-2" fill="white">
                            <use xlink:href="#path-1"></use>
                        </mask>
                        <g id="c"></g>
                        <path d="M10.174,16.194 C15.793,16.194 20.348,11.629 20.348,5.998 L0,5.998 C0,11.629 4.555,16.194 10.174,16.194 Z" id="Shape" fill="#D96B70" fill-rule="nonzero" mask="url(#mask-2)" transform="translate(10.174000, 11.096000) scale(-1, 1) rotate(-180.000000) translate(-10.174000, -11.096000) "></path>
                    </g>
                    <g id="Clipped">
                        <mask id="mask-4" fill="white">
                            <use xlink:href="#path-3"></use>
                        </mask>
                        <g id="c"></g>
                        <path d="M10.174,1.799 C13.81,1.799 16.757,-1.156 16.757,-4.799 L3.591,-4.799 C3.591,-1.156 6.538,1.798 10.174,1.798 L10.174,1.799 Z" id="Shape" fill="#FFFFFF" fill-rule="nonzero" mask="url(#mask-4)" transform="translate(10.174000, -1.500000) scale(-1, 1) rotate(-180.000000) translate(-10.174000, 1.500000) "></path>
                    </g>
                </g>
                <path d="M38.003,51.386 C38.8649671,51.3853757 39.5990259,52.012508 39.733,52.864 L40.783,59.531 C40.9107568,60.3436913 40.6764805,61.1715905 40.1418217,61.7968336 C39.607163,62.4220767 38.8256718,62.7820406 38.003,62.782 C37.1803282,62.7820406 36.398837,62.4220767 35.8641783,61.7968336 C35.3295195,61.1715905 35.0952432,60.3436913 35.223,59.531 L36.274,52.864 C36.4079741,52.012508 37.1420329,51.3853757 38.004,51.386 L38.003,51.386 Z" id="Shape" fill="#A5725C" fill-rule="nonzero" opacity="0.2"></path>
                <path d="M48.514,47.188 C50.476039,47.188552 52.066448,48.778961 52.067,50.741 L52.067,50.963 C52.0667874,51.2825463 51.8914163,51.5762585 51.6102125,51.7280292 C51.3290088,51.8797999 50.9872358,51.8651996 50.72,51.69 C49.983,51.206 49.242,50.963 48.495,50.963 C47.745,50.963 46.994,51.208 46.243,51.698 C45.9731612,51.874179 45.6284922,51.8883743 45.3450798,51.7349811 C45.0616675,51.5815878 44.8850647,51.2852608 44.885,50.963 L44.885,50.816 C44.885,49.8536213 45.2673718,48.9306737 45.9479701,48.250263 C46.6285684,47.5698522 47.5516213,47.1877347 48.514,47.188 Z" id="Shape" fill="#81685D" fill-rule="nonzero"></path>
                <path d="M33.143,21.83 C31.024,19.255 30.921,14.738 35.261,11.071 C39.602,7.403 37.258,1.066 33.143,0.995 C29.027,0.925 44.257,-1.91 45.917,11.78 C47.577,25.469 35.261,24.408 33.143,21.832 L33.143,21.83 Z M39.324,64.525 C41.531,62.843 45.401,62.76 48.544,66.207 C51.686,69.655 57.116,67.793 57.177,64.525 C57.237,61.257 59.666,73.351 47.937,74.669 C36.207,75.987 37.117,66.207 39.324,64.525 Z" id="Shape" fill="#FF9575" fill-rule="nonzero"></path>
                <path d="M36.869,64.525 C34.661,62.843 30.792,62.76 27.649,66.207 C24.507,69.655 19.077,67.793 19.016,64.525 C18.956,61.257 16.526,73.351 28.256,74.669 C39.985,75.987 39.076,66.207 36.869,64.525 Z" id="Shape" fill="#FF9575" fill-rule="nonzero"></path>
            </g>
            <g id="Group" transform="translate(156.000000, 78.295000)">
                <polygon id="Shape" fill="#FFDD8D" fill-rule="nonzero" points="7.2 35.493 68 35.493 68 103.643 7.2 103.643"></polygon>
                <path d="M78.4,111.147 C78.4,98.937 69.913,91.935 57.462,86.609 C54.456,85.324 53.619,84.856 50.215,83.256 C47.443,81.952 53.809,92.759 39.2,92.759 C24.591,92.759 28.7,82.714 25.64,84.061 C21.329,85.959 21.302,86.24 17.69,88.165 C7.035,93.848 0,100.032 0,111.147 C0,128.703 78.4,128.703 78.4,111.147 Z" id="Shape" fill="#8897F8" fill-rule="nonzero"></path>
                <ellipse id="Oval" fill="#6479FF" fill-rule="nonzero" cx="38" cy="93.621" rx="17.2" ry="17.238"></ellipse>
                <path d="M38.302,58.365 C40.8217797,58.3649105 43.23526,59.3803466 44.9970492,61.1818428 C46.7588383,62.983339 47.7202403,65.418848 47.664,67.938 L47.393,80.065 C47.4778726,83.3682242 45.7641305,86.4575079 42.9167621,88.1341076 C40.0693937,89.8107072 36.5366063,89.8107072 33.6892379,88.1341076 C30.8418695,86.4575079 29.1281274,83.3682242 29.213,80.065 L28.941,67.938 C28.8847636,65.4190214 29.8460296,62.9836666 31.6076012,61.1822003 C33.3691729,59.380734 35.7823938,58.3651796 38.302,58.365 Z" id="Shape" fill="#F2DDCA" fill-rule="nonzero"></path>
                <path d="M38.256,12.82 L38.349,12.82 C51.297,12.82 61.794,23.316 61.794,36.265 C61.794,36.795 61.776,37.323 61.74,37.851 L60.21,60.431 C60.0969134,62.0974925 59.46504,63.6867922 58.403,64.976 C52.153,72.564 45.453,76.359 38.303,76.359 C31.152,76.359 24.451,72.564 18.202,64.976 C17.1403204,63.686667 16.5088014,62.097379 16.396,60.431 L14.864,37.851 C13.988,24.932 23.751,13.749 36.67,12.873 C37.1979059,12.8371089 37.7268755,12.8190986 38.256,12.819 L38.256,12.82 Z" id="Shape" fill="#FFEBD8" fill-rule="nonzero"></path>
                <path d="M38.002,42.783 C38.616,42.783 39.137,43.234 39.224,43.843 L40.024,49.44 C40.1074794,50.0259756 39.932595,50.6193428 39.5446547,51.0663759 C39.1567144,51.5134089 38.593892,51.7701193 38.002,51.77 C37.4102825,51.7698295 36.847734,51.5129944 36.4600176,51.0659983 C36.0723012,50.6190021 35.8975452,50.0258028 35.981,49.44 L36.781,43.842 C36.867583,43.234092 37.3879571,42.7823339 38.002,42.782 L38.002,42.783 Z" id="Shape" fill="#A5725C" fill-rule="nonzero" opacity="0.2"></path>
                <path d="M48.514,32.972 C50.4764295,32.9725522 52.0670001,34.5635705 52.067,36.526 L52.067,36.748 C52.0664208,37.067367 51.8909069,37.3607435 51.6097734,37.5122676 C51.3286399,37.6637916 50.9870859,37.649102 50.72,37.474 C49.983,36.99 49.242,36.748 48.495,36.748 C47.745,36.748 46.994,36.993 46.243,37.483 C45.9731612,37.659179 45.6284922,37.6733743 45.3450798,37.5199811 C45.0616675,37.3665878 44.8850647,37.0702608 44.885,36.748 L44.885,36.6 C44.885,35.6376213 45.2673718,34.7146737 45.9479701,34.034263 C46.6285684,33.3538522 47.5516213,32.9717347 48.514,32.972 Z" id="Shape" fill="#81685D" fill-rule="nonzero"></path>
                <g transform="translate(21.000000, 38.000000)" fill="#81685D" fill-rule="nonzero" id="Shape">
                    <path d="M1.86,2.875 C3.81,1.462 5.526,0.755 7.007,0.755 C8.487,0.755 9.968,1.542 11.449,3.115 C11.4487214,3.57649001 11.2008056,4.00233311 10.7996246,4.23042724 C10.3984436,4.45852138 9.90571443,4.45377696 9.509,4.218 C8.672,3.72 7.831,3.471 6.984,3.471 C6.247,3.471 5.46,3.757 4.624,4.331 C4.08370088,4.70140487 3.38269851,4.74210183 2.80316571,4.43670923 C2.22363292,4.13131663 1.86090886,3.53007472 1.861,2.875 L1.86,2.875 Z"></path>
                    <path d="M0.039,1.071 C0.666,3.114 1.832,4.297 3.536,4.62 C4.545,3.913 4.159,1.581 2.798,2.257 C2.096,2.605 1.176,2.21 0.038,1.071 L0.039,1.071 Z"></path>
                </g>
                <g transform="translate(42.000000, 38.000000)" fill="#81685D" fill-rule="nonzero" id="Shape">
                    <path d="M10.34,2.875 C8.39,1.462 6.674,0.755 5.193,0.755 C3.713,0.755 2.232,1.542 0.751,3.115 C0.751278619,3.57649001 0.999194409,4.00233311 1.40037539,4.23042724 C1.80155636,4.45852138 2.29428557,4.45377696 2.691,4.218 C3.528,3.72 4.369,3.471 5.216,3.471 C5.953,3.471 6.74,3.757 7.576,4.331 C8.11629912,4.70140487 8.81730149,4.74210183 9.39683429,4.43670923 C9.97636708,4.13131663 10.3390911,3.53007472 10.339,2.875 L10.34,2.875 Z"></path>
                    <path d="M12.161,1.071 C11.534,3.114 10.368,4.297 8.664,4.62 C7.655,3.913 8.041,1.581 9.402,2.257 C10.104,2.605 11.024,2.21 12.162,1.071 L12.161,1.071 Z"></path>
                </g>
                <path d="M41.64,36.572 C51.231,43.287 62.939,46.332 65.769,43.254 C68.599,40.175 65.17,13.072 55.579,6.356 C45.989,-0.36 36.457,-2.011 30.239,4.097 C24.02,10.205 32.049,29.856 41.641,36.572 L41.64,36.572 Z" id="Shape" fill="#FFDD8D" fill-rule="nonzero"></path>
                <g transform="translate(29.668000, 56.518000)">
                    <g id="e-link" fill="#372C28" fill-rule="nonzero">
                        <path d="M8.609,8.628 C13.363,8.628 17.218,4.765 17.218,0 L0,0 C0,4.765 3.854,8.628 8.609,8.628 Z" id="e"></path>
                    </g>
                    <g id="Clipped">
                        <mask id="mask-6" fill="white">
                            <use xlink:href="#path-5"></use>
                        </mask>
                        <g id="e"></g>
                        <path d="M8.609,13.703 C13.363,13.703 17.218,9.84 17.218,5.075 L0,5.075 C0,9.84 3.854,13.703 8.609,13.703 Z" id="Shape" fill="#D96B70" fill-rule="nonzero" mask="url(#mask-6)" transform="translate(8.609000, 9.389000) scale(-1, 1) rotate(-180.000000) translate(-8.609000, -9.389000) "></path>
                    </g>
                    <g id="Clipped">
                        <mask id="mask-8" fill="white">
                            <use xlink:href="#path-7"></use>
                        </mask>
                        <g id="e"></g>
                        <path d="M8.60899835,1.522 C11.6849993,1.522 14.179,-0.978 14.179,-4.061 L3.0399934,-4.061 C3.03668099,-0.981297276 5.53029536,1.51813628 8.60999835,1.522 L8.60899835,1.522 Z" id="Shape" fill="#FFFFFF" fill-rule="nonzero" mask="url(#mask-8)" transform="translate(8.609497, -1.269500) scale(-1, 1) rotate(-180.000000) translate(-8.609497, 1.269500) "></path>
                    </g>
                </g>
                <path d="M60.926,36.107 L60.926,66.607 C69.499,51.287 70.754,35.633 64.69,19.646 C57.148,2.52 55.893,8.006 60.926,36.107 Z M32.958,17.511 C21.49,27.666 15.696,35.116 15.58,39.863 C15.464,44.609 15.522,52.78 15.755,64.375 C8.998,53.865 6.091,43.293 7.035,32.66 C8.449,16.71 20.575,2.377 34.217,0.942 C43.312,-0.015 42.892,5.508 32.958,17.512 L32.958,17.511 Z" id="Shape" fill="#FFDD8D" fill-rule="nonzero"></path>
            </g>
            <g id="Group" transform="translate(64.800000, 28.000000)">
                <g transform="translate(0.000000, 121.000000)">
                    <g id="g-link" fill="#69DC8F" fill-rule="nonzero">
                        <path d="M104.8,43.361 C104.8,27.041 93.455,17.681 76.811,10.561 C69.521,7.444 61.215,0.869 52.4,0.869 C41.782,0.869 31.902,8.24 23.647,12.642 C9.403,20.237 0,28.503 0,43.361 C0,66.83 104.8,66.83 104.8,43.361 Z" id="g"></path>
                    </g>
                    <g id="Clipped">
                        <mask id="mask-10" fill="white">
                            <use xlink:href="#path-9"></use>
                        </mask>
                        <g id="g"></g>
                        <path d="M66.535,43.64 L74.04,45 L82.504,43.584 C83.3744325,43.4380802 84.2649583,43.6828484 84.9385315,44.2531506 C85.6121047,44.8234528 86.0003786,45.6614212 86,46.544 L86,63 C86,64.6568542 84.6568542,66 83,66 L66,66 C64.3431458,66 63,64.6568542 63,63 L63,46.592 C62.9999734,45.7027087 63.3944906,44.8592362 64.0770772,44.2892233 C64.7596637,43.7192105 65.6599639,43.4814097 66.535,43.64 Z" id="Shape" fill="#62D186" fill-rule="nonzero" mask="url(#mask-10)"></path>
                    </g>
                </g>
                <path d="M51.2,93.806 C58.113,93.806 63.717,99.41 63.717,106.323 C63.717,106.416 63.716,106.51 63.714,106.603 L63.314,124.529 C63.1873464,130.18079 58.5692086,134.696332 52.916,134.696 L49.484,134.696 C43.8311801,134.695788 39.2136449,130.180401 39.087,124.529 L38.687,106.603 C38.532,99.692 44.009,93.963 50.92,93.809 C51.013,93.807 51.107,93.806 51.2,93.806 Z" id="Shape" fill="#D8BAA1" fill-rule="nonzero"></path>
                <path d="M17.6,36.08 L84.8,36.08 L83.175,91.457 C82.743,106.162 70.698,117.859 55.987,117.859 L46.413,117.859 C31.702,117.859 19.657,106.162 19.225,91.457 L17.6,36.079 L17.6,36.08 Z" id="Shape" fill="#E5CFBC" fill-rule="nonzero"></path>
                <ellipse id="Oval" fill="#E5CFBC" fill-rule="nonzero" cx="18" cy="65.344" rx="6.8" ry="7.617"></ellipse>
                <ellipse id="Oval" fill="#E5CFBC" fill-rule="nonzero" cx="84.4" cy="65.344" rx="6.8" ry="7.617"></ellipse>
                <path d="M37.65,60.934 C40.2733526,60.934 42.4,63.0606474 42.4,65.684 L42.4,65.981 C42.3999321,66.4080956 42.1655742,66.8007303 41.7896831,67.0035027 C41.4137921,67.206275 40.9569611,67.1864983 40.6,66.952 C39.615,66.305 38.623,65.982 37.626,65.982 C36.622,65.982 35.618,66.309 34.615,66.964 C34.2543135,67.1998739 33.7933295,67.2189658 33.4143741,67.0137243 C33.0354187,66.8084829 32.7995278,66.4119652 32.8,65.981 L32.8,65.784 C32.8,63.105419 34.971419,60.934 37.65,60.934 Z" id="Shape" fill="#5A4840" fill-rule="nonzero"></path>
                <g transform="translate(37.600000, 88.194000)">
                    <g id="i-link" fill="#372C28" fill-rule="nonzero">
                        <path d="M13.6,13.63 C21.111,13.63 27.2,7.528 27.2,0 L0,0 C0,7.528 6.089,13.63 13.6,13.63 Z" id="i"></path>
                    </g>
                    <g id="Clipped">
                        <mask id="mask-12" fill="white">
                            <use xlink:href="#path-11"></use>
                        </mask>
                        <g id="i"></g>
                        <path d="M13.6,21.647 C21.111,21.647 27.2,15.544 27.2,8.017 L0,8.017 C0,15.544 6.089,21.647 13.6,21.647 Z" id="Shape" fill="#D96B70" fill-rule="nonzero" mask="url(#mask-12)" transform="translate(13.600000, 14.832000) scale(-1, 1) rotate(-180.000000) translate(-13.600000, -14.832000) "></path>
                    </g>
                    <g id="Clipped">
                        <mask id="mask-14" fill="white">
                            <use xlink:href="#path-13"></use>
                        </mask>
                        <g id="i"></g>
                        <path d="M13.6,2.406 C18.46,2.406 22.4,-1.542 22.4,-6.414 L4.8,-6.414 C4.8,-1.542 8.74,2.406 13.6,2.406 Z" id="Shape" fill="#FFFFFF" fill-rule="nonzero" mask="url(#mask-14)" transform="translate(13.600000, -2.004000) scale(-1, 1) rotate(-180.000000) translate(-13.600000, 2.004000) "></path>
                    </g>
                </g>
                <path d="M50.8,66.546 C51.9516221,66.5462537 52.9318588,67.3843964 53.111,68.522 L54.515,77.433 C54.6863633,78.5193929 54.3736049,79.6263591 53.6590687,80.462453 C52.9445325,81.2985469 51.899825,81.7799803 50.8,81.78 C49.700175,81.7799803 48.6554675,81.2985469 47.9409313,80.462453 C47.2263951,79.6263591 46.9136367,78.5193929 47.085,77.433 L48.489,68.522 C48.6681412,67.3843964 49.6483779,66.5462537 50.8,66.546 Z" id="Shape" fill="#482222" fill-rule="nonzero" opacity="0.2"></path>
                <path d="M64.85,60.934 C67.4733526,60.934 69.6,63.0606474 69.6,65.684 L69.6,65.981 C69.5999321,66.4080956 69.3655742,66.8007303 68.9896831,67.0035027 C68.6137921,67.206275 68.1569611,67.1864983 67.8,66.952 C66.815,66.305 65.823,65.982 64.826,65.982 C63.822,65.982 62.818,66.309 61.815,66.964 C61.4541634,67.1999729 60.9929594,67.2189758 60.6139333,67.0134873 C60.2349073,66.8079988 59.9991597,66.4111445 60,65.98 L60,65.783 C60,63.104419 62.171419,60.933 64.85,60.933 L64.85,60.934 Z" id="Shape" fill="#5A4840" fill-rule="nonzero"></path>
                <ellipse id="Oval" fill="#93775E" fill-rule="nonzero" cx="19.6" cy="38.885" rx="6.8" ry="6.815"></ellipse>
                <ellipse id="Oval" fill="#93775E" fill-rule="nonzero" cx="19.6" cy="30.066" rx="6.8" ry="6.815"></ellipse>
                <ellipse id="Oval" fill="#93775E" fill-rule="nonzero" cx="25.2" cy="20.445" rx="12.4" ry="12.427"></ellipse>
                <ellipse id="Oval" fill="#93775E" fill-rule="nonzero" cx="36.4" cy="14.031" rx="12.4" ry="12.427"></ellipse>
                <ellipse id="Oval" fill="#93775E" fill-rule="nonzero" cx="38.8" cy="22.85" rx="12.4" ry="12.427"></ellipse>
                <ellipse id="Oval" fill="#93775E" fill-rule="nonzero" cx="50.8" cy="12.427" rx="12.4" ry="12.427"></ellipse>
                <ellipse id="Oval" fill="#93775E" fill-rule="nonzero" cx="59.6" cy="19.643" rx="12.4" ry="12.427"></ellipse>
                <ellipse id="Oval" fill="#93775E" fill-rule="nonzero" cx="67.6" cy="13.229" rx="12.4" ry="12.427"></ellipse>
                <ellipse id="Oval" fill="#93775E" fill-rule="nonzero" cx="77.2" cy="21.247" rx="12.4" ry="12.427"></ellipse>
                <path d="M16,37.683 L20,37.683 L20,64.943 L16.8,58.529 L16,37.683 Z M83.2,37.683 L87.2,37.683 L86.4,58.529 L83.2,64.943 L83.2,37.683 Z" id="Shape" fill="#93775E" fill-rule="nonzero"></path>
                <ellipse id="Oval" fill="#93775E" fill-rule="nonzero" cx="26.8" cy="33.273" rx="6.8" ry="6.815"></ellipse>
                <ellipse id="Oval" fill="#93775E" fill-rule="nonzero" cx="34" cy="36.48" rx="6.8" ry="6.815"></ellipse>
                <ellipse id="Oval" fill="#93775E" fill-rule="nonzero" cx="44.4" cy="34.877" rx="6.8" ry="6.815"></ellipse>
                <ellipse id="Oval" fill="#93775E" fill-rule="nonzero" cx="54.8" cy="32.471" rx="6.8" ry="6.815"></ellipse>
                <ellipse id="Oval" fill="#93775E" fill-rule="nonzero" cx="63.6" cy="36.48" rx="6.8" ry="6.815"></ellipse>
                <ellipse id="Oval" fill="#93775E" fill-rule="nonzero" cx="72.4" cy="33.273" rx="6.8" ry="6.815"></ellipse>
                <ellipse id="Oval" fill="#93775E" fill-rule="nonzero" cx="82" cy="37.282" rx="6.8" ry="6.815"></ellipse>
                <ellipse id="Oval" fill="#93775E" fill-rule="nonzero" cx="83.6" cy="30.066" rx="6.8" ry="6.815"></ellipse>
            </g>
        </g>
    </g>
</svg>