<?xml version="1.0" encoding="UTF-8"?>
<svg width="38px" height="38px" viewBox="0 0 38 38" version="1.1" xmlns="http://www.w3.org/2000/svg" xmlns:xlink="http://www.w3.org/1999/xlink">
    <!-- Generator: Sketch 47.1 (45422) - http://www.bohemiancoding.com/sketch -->
    <title>btc</title>
    <desc>Created with Sketch.</desc>
    <defs></defs>
    <g id="Page-1" stroke="none" stroke-width="1" fill="none" fill-rule="evenodd">
        <g id="btc" fill-rule="nonzero">
            <circle id="Oval" fill="#FFFFFF" cx="19" cy="19" r="19"></circle>
            <path d="M24.7,19.68 C25.4212454,19.1919008 25.9429742,18.4607705 26.17,17.62 C26.91,14.85 25.71,12.75 22.97,12.02 L23.86,8.69 C23.89199,8.56864565 23.8207925,8.44405003 23.7,8.41 L22.38,8.06 C22.2615821,8.02717285 22.1382763,8.09322953 22.1,8.21 L21.21,11.54 L19.46,11.07 L20.34,7.75 C20.37199,7.62864565 20.3007925,7.50405003 20.18,7.47 L18.87,7.12 C18.7515821,7.08717285 18.6282763,7.15322953 18.59,7.27 L17.69,10.6 L13.96,9.6 C13.8419399,9.57410521 13.723979,9.64400798 13.69,9.76 L13.33,11.09 C13.3,11.21 13.37,11.34 13.49,11.37 L13.71,11.43 C14.6799375,11.6977829 15.2517245,12.6984102 14.99,13.67 L13.09,20.76 C12.8454597,21.6702502 11.9495456,22.2458858 11.02,22.09 C10.9225382,22.0743551 10.8259612,22.1226436 10.78,22.21 L10.09,23.45 C10.0594975,23.5131777 10.0594975,23.5868223 10.09,23.65 C10.11,23.72 10.16,23.77 10.23,23.78 L13.9,24.77 L13.01,28.1 C12.98,28.22 13.05,28.34 13.17,28.37 L14.49,28.72 C14.61,28.75 14.73,28.68 14.77,28.56 L15.66,25.24 L17.42,25.71 L16.52,29.04 C16.5,29.16 16.57,29.28 16.68,29.31 L18,29.66 C18.12,29.69 18.25,29.62 18.28,29.5 L19.18,26.18 L20.05,26.41 C22.79,27.15 24.88,25.93 25.62,23.16 C25.97,21.86 25.57,20.56 24.7,19.68 L24.7,19.68 Z M18.74,13.73 L21.38,14.43 C22.3499375,14.6977829 22.9217245,15.6984102 22.66,16.67 C22.400928,17.6430615 21.4043982,18.2239981 20.43,17.97 L17.79,17.27 L18.74,13.73 L18.74,13.73 Z M19.88,23.53 L16.37,22.58 L17.32,19.04 L20.83,19.98 C21.7999375,20.2477829 22.3717245,21.2484102 22.11,22.22 C21.850928,23.1930615 20.8543982,23.7739981 19.88,23.52 L19.88,23.53 Z" id="Shape" fill="#B765D3"></path>
        </g>
    </g>
</svg>