<?xml version="1.0" encoding="UTF-8"?>
<svg width="32px" height="32px" viewBox="0 0 32 32" version="1.1" xmlns="http://www.w3.org/2000/svg" xmlns:xlink="http://www.w3.org/1999/xlink">
    <!-- Generator: Sketch 47.1 (45422) - http://www.bohemiancoding.com/sketch -->
    <title>eth</title>
    <desc>Created with Sketch.</desc>
    <defs></defs>
    <g id="Page-1" stroke="none" stroke-width="1" fill="none" fill-rule="evenodd">
        <g id="eth" fill-rule="nonzero">
            <circle id="Oval" fill="#FFFFFF" cx="16" cy="16" r="16"></circle>
            <path d="M10.13,17.76 C10.03,17.61 10.07,17.56 10.22,17.64 L15.71,20.73 C15.86,20.81 16.11,20.81 16.27,20.73 L21.85,17.65 C22.01,17.57 22.05,17.62 21.95,17.76 L16.2,25.9 C16.1,26.05 15.92,26.05 15.82,25.9 L10.12,17.77 L10.13,17.76 Z M10.17,15.73 C10.0948246,15.6938484 10.0380955,15.6280293 10.0134306,15.5483429 C9.98876582,15.4686565 9.99839259,15.3822987 10.04,15.31 L15.78,6.11 C15.88,5.96 16.03,5.96 16.12,6.11 L21.89,15.3 C21.99,15.44 21.94,15.63 21.77,15.71 L16.27,18.49 C16.0792429,18.5759902 15.8607571,18.5759902 15.67,18.49 L10.17,15.73 L10.17,15.73 Z" id="Shape" fill="#B765D3"></path>
        </g>
    </g>
</svg>